<svg id="Layer_1" data-name="Layer 1" xmlns="http://www.w3.org/2000/svg" viewBox="0 0 833 230"><path d="M322.24,105.53H310l-1.46,3.38a7.52,7.52,0,0,0-.72,2.79,2.32,2.32,0,0,0,1.18,2.15,9.8,9.8,0,0,0,3.41.62v1H300.82v-1a5.2,5.2,0,0,0,3.07-1.54,20.91,20.91,0,0,0,3-5.25L319.29,80h.49l12.53,28.5c1.19,2.69,2.17,4.4,2.94,5.09a4,4,0,0,0,2.46.93v1H320.9v-1h.7a5.23,5.23,0,0,0,2.84-.57,1.36,1.36,0,0,0,.56-1.17,3.19,3.19,0,0,0-.15-1c0-.16-.29-.8-.77-1.92Zm-.87-1.9-5.18-12-5.33,12Z" style="fill:#fff;fill-rule:evenodd"/><path d="M359,91.44V110.2c0,1.83.17,3,.51,3.43a3,3,0,0,0,2.08.85v.92h-9.76v-3.2a12.48,12.48,0,0,1-3.44,3,8,8,0,0,1-3.84.92,5.74,5.74,0,0,1-3.61-1.23,6.07,6.07,0,0,1-2.1-2.92,21.39,21.39,0,0,1-.54-5.82v-9.5c0-1.82-.17-2.94-.51-3.39a3,3,0,0,0-2.08-.87v-1h9.76v16.38a14.44,14.44,0,0,0,.23,3.3,2.31,2.31,0,0,0,.77,1.13,2,2,0,0,0,1.23.38,3,3,0,0,0,1.67-.48,10.61,10.61,0,0,0,2.46-2.69V96.65c0-1.82-.18-2.94-.52-3.39a3,3,0,0,0-2.07-.87v-1Z" style="fill:#fff"/><path d="M378.37,90.79l.38,8.17h-.87a12.75,12.75,0,0,0-3.25-5,5.34,5.34,0,0,0-3.33-1.33,2.51,2.51,0,0,0-1.8.72,2.14,2.14,0,0,0-.74,1.61,2.1,2.1,0,0,0,.51,1.33,25.08,25.08,0,0,0,4.59,3.62,18.15,18.15,0,0,1,4.94,4.33,6.84,6.84,0,0,1,1.21,4,8.49,8.49,0,0,1-1,3.92,7.11,7.11,0,0,1-2.82,3,8.09,8.09,0,0,1-4,1,13.88,13.88,0,0,1-4.59-1.08,4.06,4.06,0,0,0-1.05-.28c-.56,0-1,.43-1.41,1.28h-.85l-.41-8.61h.88a11.08,11.08,0,0,0,3.15,5.08,6.1,6.1,0,0,0,3.81,1.69,2.72,2.72,0,0,0,2-.75,2.46,2.46,0,0,0,.8-1.84,3.19,3.19,0,0,0-.77-2.13,20.48,20.48,0,0,0-3.43-2.71,27.09,27.09,0,0,1-5.08-4.15A7.22,7.22,0,0,1,363.53,98a7.5,7.5,0,0,1,1.9-5A6.86,6.86,0,0,1,371,90.74a8.07,8.07,0,0,1,3.77.94,2.48,2.48,0,0,0,1.13.39,1.37,1.37,0,0,0,.74-.18,5.21,5.21,0,0,0,.9-1.1Z" style="fill:#fff"/><path d="M391.05,82.7v8.76h5.69V94h-5.69v14.78a11.36,11.36,0,0,0,.19,2.69,2,2,0,0,0,.69,1,1.53,1.53,0,0,0,.89.36c1.11,0,2.16-.85,3.16-2.54l.76.56q-2.07,4.92-6.74,4.92a6,6,0,0,1-3.87-1.26,5.6,5.6,0,0,1-2-2.84,24.12,24.12,0,0,1-.26-4.72V94h-3.13v-.9a32.79,32.79,0,0,0,5.49-4.79,29.37,29.37,0,0,0,4-5.61Z" style="fill:#fff"/><path d="M408.44,91.44v5.43A17.25,17.25,0,0,1,412.62,92a6.14,6.14,0,0,1,3.46-1.23,3,3,0,0,1,2.28.89,3.37,3.37,0,0,1,.87,2.49,3.83,3.83,0,0,1-.85,2.66,2.51,2.51,0,0,1-2,1,3.48,3.48,0,0,1-2.36-.87,15.05,15.05,0,0,0-1.18-1,1.07,1.07,0,0,0-.59-.16,2.14,2.14,0,0,0-1.41.57,5.29,5.29,0,0,0-1.59,2.48,17.36,17.36,0,0,0-.82,5.48v5.52l0,1.43a5.88,5.88,0,0,0,.18,1.87,2.08,2.08,0,0,0,.89,1,5.54,5.54,0,0,0,2,.39v.92H398.65v-.92a2.81,2.81,0,0,0,2.11-.85c.37-.49.56-1.78.56-3.86V96.52a9.76,9.76,0,0,0-.21-2.62,2,2,0,0,0-.74-1.05,4.1,4.1,0,0,0-1.72-.46v-1Z" style="fill:#fff"/><path d="M432.39,111.88c-2.92,2.59-5.54,3.87-7.87,3.87a4.64,4.64,0,0,1-3.4-1.33,4.58,4.58,0,0,1-1.36-3.38,6.53,6.53,0,0,1,2.36-4.92q2.36-2.2,10.27-5.85v-2.4a10.83,10.83,0,0,0-.31-3.41,2.52,2.52,0,0,0-1.1-1.23,3.26,3.26,0,0,0-1.84-.54,4.79,4.79,0,0,0-2.75.74,1.32,1.32,0,0,0-.66,1.08,2.22,2.22,0,0,0,.72,1.33,3.35,3.35,0,0,1,1,2.13,2.88,2.88,0,0,1-.95,2.15A3.38,3.38,0,0,1,424,101a4,4,0,0,1-2.72-1,3,3,0,0,1-1.07-2.28,5.23,5.23,0,0,1,1.46-3.51,9.15,9.15,0,0,1,4.07-2.59,16.54,16.54,0,0,1,5.43-.9,8.91,8.91,0,0,1,5.39,1.46,6.69,6.69,0,0,1,2.58,3.13,20.28,20.28,0,0,1,.36,4.94v9.31a9.43,9.43,0,0,0,.13,2.07,1.19,1.19,0,0,0,.39.62.91.91,0,0,0,.58.2c.45,0,.9-.31,1.36-.94l.77.61a9.33,9.33,0,0,1-2.66,2.77,5.8,5.8,0,0,1-3.11.84,4.92,4.92,0,0,1-3.2-1,4.39,4.39,0,0,1-1.41-2.92m0-1.87v-8a14.83,14.83,0,0,0-4.61,3.9,4.7,4.7,0,0,0-1,2.79,2.92,2.92,0,0,0,.85,2.08,2.34,2.34,0,0,0,1.79.69,4.93,4.93,0,0,0,3-1.44" style="fill:#fff;fill-rule:evenodd"/><path d="M453.21,80.67v29.78c0,1.69.2,2.77.59,3.25a3.22,3.22,0,0,0,2.31.79v.93H443.17v-.93a3.13,3.13,0,0,0,2.36-.92q.51-.58.51-3.12V85.64c0-1.67-.2-2.74-.59-3.2a3.11,3.11,0,0,0-2.28-.82v-1Z" style="fill:#fff"/><path d="M464.18,79.83a4,4,0,0,1,4,4A3.75,3.75,0,0,1,467,86.6a3.95,3.95,0,1,1-2.79-6.77m3.59,11.61v19c0,1.69.19,2.78.59,3.26a3.24,3.24,0,0,0,2.3.79v.92H457.72v-.92a3.11,3.11,0,0,0,2.36-.92c.34-.39.51-1.44.51-3.13v-14c0-1.69-.19-2.77-.59-3.23a3.11,3.11,0,0,0-2.28-.82v-1Z" style="fill:#fff;fill-rule:evenodd"/><path d="M484.64,111.88c-2.92,2.59-5.54,3.87-7.86,3.87a4.65,4.65,0,0,1-3.41-1.33A4.58,4.58,0,0,1,472,111a6.57,6.57,0,0,1,2.36-4.92q2.36-2.2,10.27-5.85v-2.4a11.28,11.28,0,0,0-.3-3.41,2.59,2.59,0,0,0-1.11-1.23,3.26,3.26,0,0,0-1.84-.54,4.76,4.76,0,0,0-2.74.74,1.31,1.31,0,0,0-.67,1.08,2.22,2.22,0,0,0,.72,1.33,3.3,3.3,0,0,1,1,2.13,2.87,2.87,0,0,1-.94,2.15,3.42,3.42,0,0,1-2.44.87,4,4,0,0,1-2.72-1,3,3,0,0,1-1.07-2.28A5.23,5.23,0,0,1,474,94.23,9.13,9.13,0,0,1,478,91.64a16.54,16.54,0,0,1,5.43-.9,8.9,8.9,0,0,1,5.38,1.46,6.69,6.69,0,0,1,2.58,3.13,20.09,20.09,0,0,1,.37,4.94v9.31a10.45,10.45,0,0,0,.12,2.07,1.33,1.33,0,0,0,.39.62.94.94,0,0,0,.59.2c.44,0,.89-.31,1.35-.94l.77.61a9.33,9.33,0,0,1-2.66,2.77,5.79,5.79,0,0,1-3.1.84,4.93,4.93,0,0,1-3.21-1,4.39,4.39,0,0,1-1.41-2.92m0-1.87v-8a15,15,0,0,0-4.61,3.9,4.77,4.77,0,0,0-1,2.79,3,3,0,0,0,.85,2.08,2.36,2.36,0,0,0,1.79.69,4.88,4.88,0,0,0,3-1.44" style="fill:#fff;fill-rule:evenodd"/><path d="M505.35,91.44v3.1a13.85,13.85,0,0,1,3.54-2.89,7.43,7.43,0,0,1,3.64-.92A5.79,5.79,0,0,1,516.4,92a6.26,6.26,0,0,1,2.05,3.21,24.94,24.94,0,0,1,.41,5.61v9.32a7.46,7.46,0,0,0,.48,3.46,3,3,0,0,0,2.11.85v.92H509.32v-.92a2.51,2.51,0,0,0,1.95-1.13,7.25,7.25,0,0,0,.41-3.18V99.52a17.72,17.72,0,0,0-.23-3.72,2.18,2.18,0,0,0-.79-1.18,1.88,1.88,0,0,0-1.21-.44c-1.47,0-2.83,1.06-4.1,3.16v12.83a7.22,7.22,0,0,0,.49,3.41,2.58,2.58,0,0,0,1.87.9v.92H495.59v-.92a3,3,0,0,0,2.15-1c.29-.38.44-1.49.44-3.34V96.65c0-1.82-.17-2.94-.51-3.39a3,3,0,0,0-2.08-.87v-1Z" style="fill:#fff"/><path d="M568.63,79.87V92.12h-.94a15.6,15.6,0,0,0-5.15-7.63A12.11,12.11,0,0,0,555,81.87a9.67,9.67,0,0,0-6.48,2.2,11.83,11.83,0,0,0-3.67,6.1,30.22,30.22,0,0,0-1.08,8A29.57,29.57,0,0,0,545,107a10,10,0,0,0,3.79,5.54,11,11,0,0,0,6.26,1.77,13.4,13.4,0,0,0,2.56-.26,20.14,20.14,0,0,0,2.72-.79V106a7.78,7.78,0,0,0-.28-2.64,2.6,2.6,0,0,0-1.18-1.1,4.27,4.27,0,0,0-2.13-.49h-.9v-1h16.89v1a7.42,7.42,0,0,0-2.69.54,2.54,2.54,0,0,0-1.15,1.31,7,7,0,0,0-.24,2.38v7.23a33.23,33.23,0,0,1-6.94,2.22,35,35,0,0,1-7.46.77A22,22,0,0,1,546,114.9a21.17,21.17,0,0,1-5.77-3.53,16.9,16.9,0,0,1-3.89-5,17.22,17.22,0,0,1-1.8-7.92,17.83,17.83,0,0,1,5.51-13.24,19,19,0,0,1,13.87-5.41,24.49,24.49,0,0,1,4.66.41,22.23,22.23,0,0,1,3.64,1.18,15.26,15.26,0,0,0,3,.94,2,2,0,0,0,1.33-.51,4.75,4.75,0,0,0,1.13-2Z" style="fill:#fff"/><path d="M585.27,90.74a11,11,0,0,1,5.81,1.61,10.25,10.25,0,0,1,4.08,4.59,15,15,0,0,1,1.41,6.51A13.8,13.8,0,0,1,594,112a10.2,10.2,0,0,1-8.64,4.15,9.87,9.87,0,0,1-8.32-3.79,14,14,0,0,1-2.93-8.79,14.21,14.21,0,0,1,3-9,9.84,9.84,0,0,1,8.2-3.84m.1,1.82a3,3,0,0,0-2.25,1q-.93,1-1.23,3.9t-.29,8.07a34.42,34.42,0,0,0,.36,5.13,5,5,0,0,0,1.21,2.77,2.84,2.84,0,0,0,2.1.94,2.87,2.87,0,0,0,1.92-.64,4.26,4.26,0,0,0,1.33-2.43,59.49,59.49,0,0,0,.51-9.84,24.42,24.42,0,0,0-.48-6,4.65,4.65,0,0,0-1.44-2.39,2.71,2.71,0,0,0-1.74-.53" style="fill:#fff;fill-rule:evenodd"/><path d="M607.87,116.13,599.8,97.55a19,19,0,0,0-2.28-4.25,3.08,3.08,0,0,0-1.74-.9v-1h12.73v1a2.33,2.33,0,0,0-1.64.44,1.74,1.74,0,0,0-.61,1.33,11.25,11.25,0,0,0,1.13,3.56l3.94,9L614.48,99a14.88,14.88,0,0,0,1.36-4.71,1.58,1.58,0,0,0-.59-1.28,3.27,3.27,0,0,0-2-.57v-1h7.85v1a3.16,3.16,0,0,0-1.85.85,16.09,16.09,0,0,0-2.15,4.07l-8,18.81Z" style="fill:#fff"/><path d="M639.92,102.56H626.78a12.43,12.43,0,0,0,2.53,7.54,5.39,5.39,0,0,0,4.26,2.12,4.92,4.92,0,0,0,2.79-.84,11,11,0,0,0,2.69-3.1l.87.56a14.64,14.64,0,0,1-4.3,5.64,9.36,9.36,0,0,1-5.46,1.64,9.08,9.08,0,0,1-8.07-4.1,14.48,14.48,0,0,1-2.21-8.2q0-6,3.23-9.53a10,10,0,0,1,7.61-3.57,8.19,8.19,0,0,1,6.31,3c1.79,2,2.75,4.93,2.89,8.84m-6.3-1.71a23.49,23.49,0,0,0-.46-5.67,4.6,4.6,0,0,0-1.39-2.33,2.12,2.12,0,0,0-1.43-.46,2.5,2.5,0,0,0-2.18,1.31,11.18,11.18,0,0,0-1.51,6.25v.9Z" style="fill:#fff;fill-rule:evenodd"/><path d="M651.29,91.44v5.43A17.09,17.09,0,0,1,655.47,92a6.11,6.11,0,0,1,3.45-1.23,3,3,0,0,1,2.28.89,3.37,3.37,0,0,1,.87,2.49,3.88,3.88,0,0,1-.84,2.66,2.53,2.53,0,0,1-2,1,3.5,3.5,0,0,1-2.36-.87,13.23,13.23,0,0,0-1.18-1,1.07,1.07,0,0,0-.59-.16,2.16,2.16,0,0,0-1.41.57,5.28,5.28,0,0,0-1.58,2.48,17.36,17.36,0,0,0-.82,5.48v5.52l0,1.43a5.88,5.88,0,0,0,.18,1.87,2.05,2.05,0,0,0,.9,1,5.45,5.45,0,0,0,2.05.39v.92H641.5v-.92a2.79,2.79,0,0,0,2.1-.85c.38-.49.56-1.78.56-3.86V96.52a10.4,10.4,0,0,0-.2-2.62,2.06,2.06,0,0,0-.75-1.05,4,4,0,0,0-1.71-.46v-1Z" style="fill:#fff"/><path d="M673.38,91.44v3.1a14,14,0,0,1,3.53-2.89,7.43,7.43,0,0,1,3.64-.92,5.75,5.75,0,0,1,3.87,1.3,6.14,6.14,0,0,1,2.05,3.21,24.94,24.94,0,0,1,.41,5.61v9.32c0,1.85.16,3,.49,3.46a3,3,0,0,0,2.1.85v.92H677.35v-.92a2.52,2.52,0,0,0,1.95-1.13,7.41,7.41,0,0,0,.41-3.18V99.52a16.77,16.77,0,0,0-.24-3.72,2.13,2.13,0,0,0-.79-1.18,1.87,1.87,0,0,0-1.2-.44c-1.47,0-2.84,1.06-4.1,3.16v12.83a7.4,7.4,0,0,0,.48,3.41,2.63,2.63,0,0,0,1.88.9v.92H663.62v-.92a3,3,0,0,0,2.15-1c.29-.38.43-1.49.44-3.34V96.65c0-1.82-.18-2.94-.52-3.39a3,3,0,0,0-2.07-.87v-1Z" style="fill:#fff"/><path d="M701.14,91.44V94.6a13.52,13.52,0,0,1,3.64-3,8,8,0,0,1,3.69-.87,6.63,6.63,0,0,1,3.87,1.07,6.84,6.84,0,0,1,2.41,3.28,15.07,15.07,0,0,1,3.92-3.33,8.22,8.22,0,0,1,4-1,6.16,6.16,0,0,1,3.94,1.15,5.69,5.69,0,0,1,2.05,2.89,19.21,19.21,0,0,1,.59,5.59v9.81c0,1.85.16,3,.49,3.44a3.12,3.12,0,0,0,2.1.87v.92H719.41v-.92a2.71,2.71,0,0,0,2.15-1.13,6.74,6.74,0,0,0,.47-3.18V99.87a19.06,19.06,0,0,0-.26-4.07,2.29,2.29,0,0,0-.82-1.28,2,2,0,0,0-1.28-.44,3.82,3.82,0,0,0-2.23.82,10.08,10.08,0,0,0-2.28,2.41v12.86a7.53,7.53,0,0,0,.43,3.26,2.68,2.68,0,0,0,2.26,1v.92h-12.4v-.92A2.73,2.73,0,0,0,707,114a2.09,2.09,0,0,0,.77-1.07,11.79,11.79,0,0,0,.2-2.75V99.87a18.86,18.86,0,0,0-.25-4.07,2.46,2.46,0,0,0-.87-1.28,2,2,0,0,0-1.28-.46,3.35,3.35,0,0,0-1.88.54,10.4,10.4,0,0,0-2.56,2.71v12.86a7.6,7.6,0,0,0,.49,3.36,2.64,2.64,0,0,0,2.1,1v.92H691.38v-.92a3,3,0,0,0,2.15-1c.29-.38.44-1.49.44-3.34V96.65c0-1.82-.17-2.94-.51-3.39a3,3,0,0,0-2.08-.87v-1Z" style="fill:#fff"/><path d="M753.11,102.56H740a12.43,12.43,0,0,0,2.53,7.54,5.39,5.39,0,0,0,4.26,2.12,4.92,4.92,0,0,0,2.79-.84,11,11,0,0,0,2.69-3.1l.87.56a14.54,14.54,0,0,1-4.3,5.64,9.34,9.34,0,0,1-5.46,1.64,9.08,9.08,0,0,1-8.07-4.1,14.48,14.48,0,0,1-2.21-8.2q0-6,3.23-9.53a10,10,0,0,1,7.61-3.57,8.19,8.19,0,0,1,6.31,3c1.79,2,2.76,4.93,2.89,8.84m-6.3-1.71a23.49,23.49,0,0,0-.46-5.67A4.59,4.59,0,0,0,745,92.85a2.13,2.13,0,0,0-1.44-.46,2.5,2.5,0,0,0-2.18,1.31,11.18,11.18,0,0,0-1.51,6.25v.9Z" style="fill:#fff;fill-rule:evenodd"/><path d="M763.8,91.44v3.1a13.85,13.85,0,0,1,3.54-2.89,7.39,7.39,0,0,1,3.63-.92,5.8,5.8,0,0,1,3.88,1.3,6.26,6.26,0,0,1,2,3.21,25.13,25.13,0,0,1,.4,5.61v9.32a7.42,7.42,0,0,0,.49,3.46,3,3,0,0,0,2.1.85v.92H767.77v-.92a2.51,2.51,0,0,0,2-1.13,7.41,7.41,0,0,0,.41-3.18V99.52a17.72,17.72,0,0,0-.23-3.72,2.19,2.19,0,0,0-.8-1.18,1.83,1.83,0,0,0-1.2-.44c-1.47,0-2.83,1.06-4.1,3.16v12.83a7.22,7.22,0,0,0,.49,3.41,2.58,2.58,0,0,0,1.87.9v.92H754v-.92a3,3,0,0,0,2.15-1c.29-.38.44-1.49.44-3.34V96.65c0-1.82-.17-2.94-.52-3.39a3,3,0,0,0-2.07-.87v-1Z" style="fill:#fff"/><path d="M790.08,82.7v8.76h5.69V94h-5.69v14.78a12.17,12.17,0,0,0,.18,2.69,2.14,2.14,0,0,0,.69,1,1.58,1.58,0,0,0,.9.36c1.11,0,2.16-.85,3.16-2.54l.76.56q-2.07,4.92-6.74,4.92a6,6,0,0,1-3.87-1.26,5.68,5.68,0,0,1-2-2.84,24.47,24.47,0,0,1-.25-4.72V94h-3.13v-.9a32.79,32.79,0,0,0,5.49-4.79,29.37,29.37,0,0,0,4-5.61Z" style="fill:#fff"/><path d="M107.28,172.59a1.56,1.56,0,0,1-.66.66" style="fill:#fff"/><path d="M113.28,125.67a1.26,1.26,0,1,0-1.25-1.26,1.25,1.25,0,0,0,1.25,1.26" style="fill:#fff"/><path d="M171.42,72.68v0H126.21v0h0l0,36.51c0,3.52,1.49,6.6,3.55,7.56l17.39,10.38a2.11,2.11,0,0,0,1.58.71,2.08,2.08,0,0,0,1.42-.56l17.66-10.53c2.06-1,3.55-4,3.55-7.56l0-36.51ZM141.23,83.25h-3.91V73.9h3.91Zm-2.84,3.26.56-.59-.35-.64.74.08.43-.78.44.78.74-.08-.35.64.56.59-.71.12v.8l-.68-.5-.67.5v-.8Zm-10.91,2.75h4.75v8.87h-4.75Zm.79-4,.73.08.44-.78.43.78.74-.08-.35.64.56.59-.71.12v.8l-.67-.5-.68.5v-.8l-.7-.12.55-.59Zm5.36,9,.73.07.44-.77.43.77.74-.07-.35.63.56.6-.71.12v.79L134.8,96l-.67.49v-.79l-.71-.12.55-.6Zm3.15-7.14c0-.22-.35-.3-.48-.3-.42,0-.59.7-1,.72s-.44,0-.44-.28.53-.42.74-.62c-2.93,0-3,1.33-3.44,1.33-.77,0,.64-1.41,1-1.82-.6-.08-.94-.82-1.59-1.2.31-.44.48-.24.86.06,0-.3.23-.65.91-.65,1.31,0,.95,1.25,1.16,1.25s0-1.25.86-1.25c1.3,0,2.93,3.34,1.46,3.34-.64,0-.13-.48-.14-.58m-3.36-9.76.55-.6-.34-.63.73.08.44-.76.43.76.74-.08-.35.63.56.6-.71.12v.79l-.67-.49-.67.49v-.79Zm-1.19,5.84h-4.75V73.9h4.75Zm9,38.89-10.81-6.47c-1.81-1.23-2.7-3.39-2.94-6V99.37h13.75Zm-3.91-32.88h3.91v8.87h-3.91Zm17.85,33.61-5,3h-.09a2.13,2.13,0,0,1-1.32.46,2.06,2.06,0,0,1-1.33-.48l-5-3V99.37h12.7Zm0-24.73h-12.7V73.9h12.7Zm15,11.51c-.24,2.63-1.13,4.79-2.94,6l-10.81,6.47V99.37h13.75Zm0-11.51H156.4V73.9h13.75Z" style="fill:#fff"/><path d="M140.51,107.74c-.07-.15-1.73.55-1.26.51a5,5,0,0,1,1.38-1.86c-.08-.58-.81,0-1.59.35,2.58-3.69.92-2.17-.51-1.91,2.29-2.48,1.69-2.44,0-1.66,1.33-1.06,1.61-2.32,1.41-2.68-1.25,1.66-2.4,1.4-2.4,2.94a6.16,6.16,0,0,1-.89,3.25c-.67.73-.16-2.72-1.92-2.72-.56,0-1.9,0-2.3.64.36,0,.9.92.9,1.28s.33,1.37-.27,1.37-1.31-1.27-1.31-1.88,0-.46,0-1.33c0-1.46-2.37-3.51-3.34-3.51,0,1,1.33,1.25,1.33,2.55-.57,0-1.37-1-1.37-.4s.85.77.85,1.34-1-.21-1,.4.53.44.66,1c-.4-.11-.75-.06-.82.14s.12.41.41.57c-.13.13-.25.43-.25,1.29,0,2.88,1.81,4.22,3.14,4.22.94,0,.79-.66.91-1,0,.49.5-.24.5.61s-.91.51-.91,1.27c0,1,1.44,0,1.44,1.11a13.78,13.78,0,0,1-.17,1.88c0,.36,1.52-.5,1.42-.66.37.13.35,1.2,1,1.18.43,0,.53-1.1.87-1.2-.2.06,1.37,1,1.37.54,0-1.34-.55-.77-.55-1.69s1.86-.69,1.57-1.13-.42-.14-.61-.77c0,.11-1.47-2.14.31-1s2.07-2.84,2-3.05" style="fill:#fff"/><path d="M188.73,117.29a1.33,1.33,0,1,0-1.49-1.32,1.41,1.41,0,0,0,1.49,1.32" style="fill:#fff"/><path d="M182.72,120.86a1.32,1.32,0,1,0-1.49-1.31,1.41,1.41,0,0,0,1.49,1.31" style="fill:#fff"/><path d="M111.26,129.09a1.32,1.32,0,1,0-1.49-1.31,1.41,1.41,0,0,0,1.49,1.31" style="fill:#fff"/><path d="M115.9,129.49a1.32,1.32,0,1,0-1.49-1.31,1.4,1.4,0,0,0,1.49,1.31" style="fill:#fff"/><path d="M244.54,67.15a9.31,9.31,0,0,1,1.1,9.85c-.86-.08-.71-1.19-.86-1.83-1.58-2.93-2.85-6.67-1.42-10,1,.16.63,1.43,1.18,2" style="fill:#fff"/><path d="M55.77,70.71a14.16,14.16,0,0,0,0,6.28c-.39.39-.31-.4-.71-.32C52,74.45,53.41,70.08,52.62,67a.61.61,0,0,1,.79-.16,5.63,5.63,0,0,1,2.36,3.89" style="fill:#fff"/><path d="M251.32,71c.47.87-.39,1.74-1,2.14a2,2,0,0,1-2-.87,1.84,1.84,0,0,1,1-2.07,2.05,2.05,0,0,1,2,.8" style="fill:#fff"/><path d="M51,74.45a2.31,2.31,0,0,1-1,1.74c-.47,0-1.18,0-1.5-.39a1.48,1.48,0,0,1-.32-1.67,1.83,1.83,0,0,1,1.5-.72c.55.24,1.11.4,1.34,1" style="fill:#fff"/><path d="M254.39,75.8a1.74,1.74,0,0,1,0,1.27,1.78,1.78,0,0,1-2.12.71,2.09,2.09,0,0,1-.87-1.35A2.43,2.43,0,0,1,252.74,75a2.5,2.5,0,0,1,1.65.8" style="fill:#fff"/><path d="M249.9,75.88c.63.31.16,1.11.08,1.58-.4.4-.95,1-1.66.8-.39-.4-.86-.4-1-1a1.77,1.77,0,0,1,1.1-1.83,2,2,0,0,1,1.5.4" style="fill:#fff"/><path d="M244.14,77.07c0,.88.08,2-.94,2.15a1.49,1.49,0,0,1-1.81-1.12,1.87,1.87,0,0,1,1.18-1.9,2.13,2.13,0,0,1,1.57.87" style="fill:#fff"/><path d="M59.56,77.47c.23.79-.56,1.27-1,1.67A1.61,1.61,0,0,1,57,78.26c-.55-.55.16-1,.32-1.51a1.47,1.47,0,0,1,2.29.72" style="fill:#fff"/><path d="M54.83,77.71A1.63,1.63,0,0,1,54,79.22a1.44,1.44,0,0,1-1.58-.72,1.36,1.36,0,0,1,.71-1.83c.87-.32,1.42.48,1.74,1" style="fill:#fff"/><path d="M225.07,78a16.85,16.85,0,0,1,1.57,5.72c-.31,1.51.24,3.5-.87,4.53-1.1-.4-1.18-1.75-1.89-2.46-1.42-2.78-.16-6,.32-8.74.63-.24.63.56.87,1" style="fill:#fff"/><path d="M51.12,79c.24,1-.47,1.43-1,2a1.85,1.85,0,0,1-2-1.11,2,2,0,0,1,1-1.9,2,2,0,0,1,2,1" style="fill:#fff"/><path d="M237.52,81.28a11.45,11.45,0,0,1,.39,7.63l-.47.4c-1.1-2.15-2.68-4.13-3.23-6.43a10.59,10.59,0,0,1,.95-4.53c.55-.4.86.08,1.1.56a3.1,3.1,0,0,0,1.26,2.37" style="fill:#fff"/><path d="M247.46,79.85a2,2,0,0,1-1.19,1.91,1.41,1.41,0,0,1-1.81-1,1.71,1.71,0,0,1,.87-1.91c.86-.48,1.73.32,2.13.95" style="fill:#fff"/><path d="M54.91,82.32a1.72,1.72,0,0,1-1.19,1.51c-.63.47-1.1-.32-1.66-.56a1.9,1.9,0,0,1,0-1.82c.24-.48.8-.48,1.27-.64.71.4,1.42.72,1.58,1.51" style="fill:#fff"/><path d="M58.37,81.92c.32.79-.55,1.19-.86,1.59-.95.32-1.42-.4-1.82-1-.15-.8.32-1.28.87-1.75.95-.24,1.42.4,1.81,1.11" style="fill:#fff"/><path d="M249.67,81.68c-.09,1-1.66,2.07-1.82,3.1A8,8,0,0,1,243,89.23a3.8,3.8,0,0,1-1.81,1c-.16-1.59,1.26-3,2.13-4.45a11.71,11.71,0,0,1,6.39-4.13" style="fill:#fff"/><path d="M53.33,85a28.41,28.41,0,0,0,3.23,3.73.66.66,0,0,1-.55.8c-3.86-.24-6.47-4.21-8.36-7,.24-.87,1.26-.16,1.82-.24,1.33,1,2.83,1.35,3.86,2.7" style="fill:#fff"/><path d="M250.77,86.12c-.16,3.41-1.82,6.91-4.89,8.57-.87.32-1.82,1.2-2.68.64,1.65-3.42,4.18-6.19,6.94-9.21Z" style="fill:#fff"/><path d="M235.63,88.42a1.93,1.93,0,0,1-1.34,2.3c-.87.08-1.42-.63-1.82-1.26a1.67,1.67,0,0,1,1.11-1.75,1.29,1.29,0,0,1,.94-.24c.48.16.71.55,1.11,1" style="fill:#fff"/><path d="M49,89.14a45.85,45.85,0,0,1,4.26,3.73c-1,.71-2.29.08-3.47.08-2.68-1-4.5-3.26-7.26-4,.08-.88,1.11-.56,1.66-.8,1.74-.16,3.15.64,4.81,1" style="fill:#fff"/><path d="M133.44,65.64c-4.42-1.75-7.33,2.86-11.83,2.3-.55.32-.39.88-.71,1.27s-.63.08-.87-.08c-.23-1.9-.86-3.65-1.1-5.48-.47-.79-.24-1.9-.63-2.7-2.52-6.9,6.15-1.66,7.88-5.71,1.51-3.5-2.91-3.89-4.25-6.36v-1c-1.27-1.27-2.61-1.66-3.39-3.33a11.58,11.58,0,0,0,.23-6.12c-.08-.48-.39-1.11-1.1-.87-1.5,2.06-2.6,3.73-4,5.72a42.47,42.47,0,0,0-4.65-3.5c-1.19-.16-2.29-1.35-3.63-.87a1.05,1.05,0,0,0,.24,1.18c.07,3.11,1.65,5.57,3.86,7.79l.24,1.19c-1.42,3.26-1,7-1.42,10.48-3.55,9.06-9.31,17.8-17.12,24.07-4.49,5.08-9.85,10-10.56,17-.24,1.12.16,2.47-.71,3.26A27,27,0,0,1,72.57,100c-3.63-2.54-8.83-2.23-11.2-6.83-.95-1.83.24-3.65,1.1-5,2.68-2.55,2.29-7.07.87-10.17-.31-.08-.39.32-.63.39-.24,4.69-3.94,8-2.52,13.11.31,1.51,1.1,2.46,1.5,3.89A13.56,13.56,0,0,1,59.87,95c-1.73-.24-3.47-1-5.28-.72C51,95.9,46,93.84,43.08,97.17c-.48.08-1.11.16-.95.87,1.73,0,3.39.48,5.13.4,2.76.48,4.57-1.83,6.46-2.86h.47c.79-.79,2.13-.32,3.16-.48,5,.56,8.83,2.94,12.93,5.41v.31c-1.58.72-3.39,1.19-5,2.07-1.81,1.35-3.86,3.09-4.41,5.32-1.27,2,.39,3.73,1.18,5.4.08.79.16,1.75.87,2.06,2.52-2.7.15-6,.55-9.13.63-2.38,2.84-3.49,5.13-4.13,4.49-1.9,7.72,1.75,11.35,3.81-.08,3.66.39,7.15-.4,10.73a9.87,9.87,0,0,1-3.7.55c-6.23.48-11.12,3.89-16.72,5.8-2.52.87-5.52.79-8,1.74,2,.56,4-.15,6.07-.23,7.73-1.12,13.64-7.07,22-6l.16.24a18.66,18.66,0,0,1-3.71,5.16c-.24-.87-.31-1.58-1.1-2.07a1.48,1.48,0,0,0-1.82.64,1.11,1.11,0,0,0,0,1.19A2.56,2.56,0,0,0,74.46,125c-.16.72-1,1-1.5,1.67-2.21,3.74-6.7,2.22-9.3,4.85-.4.55-1.82.87-1.19,1.74a11.89,11.89,0,0,0,8.13-2.06c2.91-3.26,6-6.35,8.91-9.45A9.45,9.45,0,0,1,77.77,129a9.53,9.53,0,0,0-2.13-1.19,2,2,0,0,0-1.42,1.59A4.72,4.72,0,0,0,75.4,131c-2.68,1.91-6.06,2.07-9.14,2.94a156.28,156.28,0,0,1-17.19,1.27c-2.76-.16-5.91.79-8.51,0-3,.55-6.23-.4-8.68,1.27-.32.39.08.8.08,1.19,3.63,2.38,8.6.48,12.69,1.19H75.72c2.29-.08,4.57-.16,6.39-1.19,4-2.3,6.23-6.43,8.28-10.48A16.34,16.34,0,0,0,92,122.42,6.87,6.87,0,0,1,98,117.58a36.21,36.21,0,0,1-1.33,12.07c-.48,2.54-2.13,5-1.11,7.7.24,1.27,1.58,1.27,2.6,1.43,9.55-.16,19.09-.55,29.18.16a23.42,23.42,0,0,0,5.36.79c.16-.23.71-.31.47-.79a3,3,0,0,0-1.89-2.22c-.16-.48-.86-.32-1.1-.64-5-2.86-11.12-1.35-17-1.27-3.07.32-6.15.88-8.75-.87-1.18-1.43-.31-6-.31-6,0-1.79,4.34-14.29,4.89-15.33a13.82,13.82,0,0,0,.47-3.65c.63-1.59.47-3.65.47-5.4.32-2.54,1.58-4.92,2.45-7.39.47-1.19.87-2.46,1.34-3.65.47-1.51.63-2.94,1.58-4.13,2.57,1.64,5.08,1.59,6.32,4.5l1.09,6.62c0,.4.31,1.19.86.72,2-1.35,1.42-4.37,1.42-6.43.48-2.47-1.26-3.66-2-5.81a9.44,9.44,0,0,1-1.46-2.29c-.31-1.75-4.14-2.95-3.27-5.09.47-1.83,1-3.5,2.68-4.53a.79.79,0,0,1,.39.57l.95-.67.1-6.64c2.55,0,6.37.32,9,.32.71.24,1.26.79,2.05.87l.63-.87,6.39-1.24c-2.71.3-4.36-2.82-6.94-2.82" style="fill:#fff"/><path d="M140.38,68.44a3.21,3.21,0,0,0,.59-.11Z" style="fill:#fff"/><path d="M71.7,90.57a1.74,1.74,0,0,1-1.18,1.82c-.63-.23-1.11-.31-1.5-1-.31-.87.47-1.51,1.1-1.83.63.16,1.42.24,1.58,1" style="fill:#fff"/><path d="M66.58,90.57a1.73,1.73,0,0,1,.31,1.82c-.55.48-1.42.88-1.89.24-.48-.47-1-1-.55-1.67s1.5-1,2.13-.39" style="fill:#fff"/><path d="M176.33,91.44a.75.75,0,0,1,.07.12" style="fill:#fff"/><path d="M236.42,92.79c.31.88-.4,1.51-1,1.83-.79-.24-1.81-.4-1.81-1.43a1.52,1.52,0,0,1,2.84-.4" style="fill:#fff"/><path d="M240.6,92.64c.23.39.79,1,.16,1.43a2.9,2.9,0,0,0-.8.63,1.53,1.53,0,0,1-1.89-1c-.16-.88.55-1.27,1.19-1.67.55-.16.94.24,1.34.56" style="fill:#fff"/><path d="M46.78,93.59a1.55,1.55,0,0,1-2.12,1,3.23,3.23,0,0,1-.64-1,1.47,1.47,0,0,1,.87-1.35,1.89,1.89,0,0,1,1.89,1.35" style="fill:#fff"/><path d="M73.36,94.94c-.08.64-.79,1.19-1.34,1.51-.79.08-1.34-.56-1.74-1.11a1.6,1.6,0,0,1,1-1.59,1.77,1.77,0,0,1,2.13,1.19" style="fill:#fff"/><path d="M68.7,94.38a1.24,1.24,0,0,1,.24,1.28c-.47.39-1.18,1.11-2,.63-.48-.4-1-.71-.87-1.51a3.48,3.48,0,0,1,1.19-1c.62-.16.94.24,1.41.55" style="fill:#fff"/><path d="M252.66,95.34a2.1,2.1,0,0,1-1,1.51,1.54,1.54,0,0,1-1.73-.4c-.47-.16-.32-.79-.32-1.19a2.68,2.68,0,0,1,1.5-1,2.82,2.82,0,0,1,1.58,1.11" style="fill:#fff"/><path d="M257.71,96.05a2,2,0,0,1-1.5,1.44c-.47-.08-1.34-.24-1.18-1a1.37,1.37,0,0,1,2.68-.48" style="fill:#fff"/><path d="M55.77,97.17a1.53,1.53,0,0,1-.94,1.9c-.56.32-1.11-.08-1.5-.4a1.35,1.35,0,0,1-.4-1.58c.16-.72.87-.56,1.34-.88a2,2,0,0,1,1.5,1" style="fill:#fff"/><path d="M59.63,97.88c.24.64-.47.88-.63,1.36a1.31,1.31,0,0,1-1.41.15c-.56-.47-1.19-1.19-.64-1.9.64-1.19,2.29-.56,2.68.39" style="fill:#fff"/><path d="M248,97.49c.08.79-.63,1.34-1.11,1.82a1.33,1.33,0,0,1-1.57-1,1.63,1.63,0,0,1,.86-1.51,1.73,1.73,0,0,1,1.82.64" style="fill:#fff"/><path d="M254.47,98.76c-.16.71-.08,1.51-.86,2a2.32,2.32,0,0,1-1.9-.32,1.46,1.46,0,0,1-.31-1.67,1.84,1.84,0,0,1,1.89-1c.56.31.71.71,1.18,1" style="fill:#fff"/><path d="M52.78,100.43c.31.63-.4.79-.63,1.11a1.59,1.59,0,0,1-1.58-.16c-.55-.32-.32-1.11-.24-1.51.71-1.35,2.13-.39,2.45.56" style="fill:#fff"/><path d="M249.51,101.94c.31.08.16.56.07.71-1.89,1-4.73,1.2-6.38-.32a25.55,25.55,0,0,0-3.16-1.74c.4-1,1.82-1,2.84-1.19,2.29.31,4.1,2.46,6.63,2.54" style="fill:#fff"/><path d="M56.56,101.22c.16.64-.31.88-.47,1.35-.32.48-1,.32-1.34.16a1.32,1.32,0,1,1,1.81-1.51" style="fill:#fff"/><path d="M63.5,101.7c.32.71-.16,1.35-.79,1.74s-1-.15-1.5-.23c-.39-.56-1.1-1.2-.39-1.83.71-1.19,2.13-.56,2.68.32" style="fill:#fff"/><path d="M154.66,105.06c-.15,1.58-2.77-.23-2.4,1.89.38,1.51.68,3.32,1.58,4.45.75,1,.37,2.72.3,4a7.14,7.14,0,0,1-3,2.56c-2.24-.22-5.54,1.13-6.59-1.66-.45-1.21-1.28-2.42-1.28-3.77.23-.15.53-.15.76-.38,0-.53-.6-.83-.53-1.36,2.55-.45-1.05-2.71,1.13-2.87,1.79,1.89,4.71,1.29,6.29,3.32a6.62,6.62,0,0,0,1.12,1c-.3-1.89-1.2-3.77-1.5-5.81a2.63,2.63,0,0,1,.9-2.64c1.35-1.06,2.47.45,3.22,1.28" style="fill:#fff"/><path d="M70.44,104.54c.24.8-.39,1.28-.87,1.67-.71.32-1.1-.47-1.42-.87-.24-.8.32-1.19.79-1.59a1.72,1.72,0,0,1,1.5.79" style="fill:#fff"/><path d="M119.09,105.34a10.86,10.86,0,0,1-1,8.89c-.08.64.16,1.67-.71,1.59-2.13-2.94-.55-7.07.32-10.17.16-.79,1.1-1.1,1.34-.31" style="fill:#fff"/><path d="M186.58,106.85a9,9,0,0,1,.16,7.39l-.63.63a17.89,17.89,0,0,1-1.81-5.64,19.44,19.44,0,0,0,.94-4.21c1.11-.23,1,1.2,1.34,1.83" style="fill:#fff"/><path d="M76.59,107.72c-.47,1-1.82,1.19-2.68,1.83a9.38,9.38,0,0,1-7,1.35,8.56,8.56,0,0,1,9-3.73c.16.32.55.16.71.55" style="fill:#fff"/><path d="M44.18,110.59c2.92,2.06,3.71,4.92,5.44,7.78.24.31,1,.39.71,1-.63.48-1.26-.48-2.13-.32a8.73,8.73,0,0,1-4.81-8.18c0-.31.47-.31.79-.31" style="fill:#fff"/><path d="M183.51,113.05c.08.8-.08,1.59-.71,1.83a1.46,1.46,0,0,1-1.82-1c-.23-.55.24-.87.4-1.27a1.41,1.41,0,0,1,2.13.4" style="fill:#fff"/><path d="M216.78,117.27a40.74,40.74,0,0,1,.55-4.37,2.87,2.87,0,0,0,.32-1.67c1.89-2.54,5.76-1.75,8.75-1.51,1.19.64,2.68.56,3.95.88a2.86,2.86,0,0,1,2-.4c2.52-1.35.86-4.29,1-6.59l-.94-2.38a9.77,9.77,0,0,1-.64-1.59c-.47-.56-.78-1.59-1.26-2.15-1.34-3.49-3.94-5.48-6.15-8.26C220.33,84,214,81.05,207.72,79s-12.54.63-18.14,2.62a4.53,4.53,0,0,1-3.07-3.34A15.78,15.78,0,0,1,188,69.85c.24-2,1.58-3.49,2.13-5.32,1.42-4.45,2.92-8.81,3.24-13.66.15-2.94-2.05-5-4.26-6.27a4.28,4.28,0,0,0-4.34.88c-1,2.14-3.23,3.57-5.12,4.6-.16,1.35,1.49.48,2,1,1.74.32,3.71-.24,5.13.88.16,3.18-1.66,5.79-3.31,8.17-2.68,4-5.52,8-7.18,12.39l-.31-.31.38,19.41c2.51,4.18,5.65,9,10.34,10.53,2.52,2.06,5.68,4.52,9.07,2.7,1.81-.56,2,2,2.84,3,.94,2.94-1.18,5-1.34,7.7l-2.05,4.37c-2.37,4.6-4.5,9.53-8.13,13.42-1.18,0-1.89,1.27-3.07,1.35-.63.87-1.89.24-2.68.55-2.45,1-5.91.4-7.57,2.7a1.08,1.08,0,0,0,.63.4c4.81.08,10.17.4,15.3.16A1.9,1.9,0,0,0,191,137c-.71-1.35.24-2.54.87-3.57.39-1.91,1.65-3.1,2.21-4.92,1.65-3.26,3.54-6.44,5.36-9.7l2.44-4a27.87,27.87,0,0,1,2.44-4.45,10,10,0,0,0,1.42-2.15c.08-.79-.31-1.11-.79-1.67.56-.55,1.42-.39,2.14-.55,2,1.19,4,3.1,4.41,5.24l.71,2.06.32,1-.16,2.62.31,2.46c.4,3.81-.31,7.7-.7,11.52-1.35,4.6-6.63,4.13-10.42,5.16-.94.63-2.75.32-2.75,1.9,4.57,1,9.93.4,14.82.32.79-.32,1-1,1.34-1.75.16-1,1.18-1.9.87-3-.87-1.11-.08-2.86-.32-4.37a2.42,2.42,0,0,0,0-1.51c.63-2.3.48-5.08.95-7.31Z" style="fill:#fff"/><path d="M255.58,114.16c-2.53,3.58-5.21,7.63-9.62,8.9-.32,0-.63.16-.79-.24,2.68-2.86,4.1-7.31,8.28-8.34a2.6,2.6,0,0,1,2.13-.32" style="fill:#fff"/><path d="M40.32,118.06c-.4.32-.08,1-.79,1.11a1.26,1.26,0,0,1-1.65-.71,1.41,1.41,0,0,1,1-1.75c.63.32,1.26.56,1.42,1.35" style="fill:#fff"/><path d="M63,119.15c.23.72-.56.72-1,.88A8.58,8.58,0,0,1,53,117.72c0-.31,0-.63.32-.71,3.23.79,7,.16,9.7,2.14" style="fill:#fff"/><path d="M44.66,118.12a2.14,2.14,0,0,1,.15,1.19,1.74,1.74,0,0,1-2,.72,2.56,2.56,0,0,1-1-1,1.87,1.87,0,0,1,1.34-1.5,2.37,2.37,0,0,1,1.5.63" style="fill:#fff"/><path d="M118.54,118.52c.15.71-.48,1.19-1,1.51a1.54,1.54,0,0,1-1.65-.64,1.15,1.15,0,0,1,.55-1.51c.71-.16,1.81-.08,2.05.64" style="fill:#fff"/><path d="M258.57,118.86c.24.79-.47,1.19-1,1.66a1.71,1.71,0,0,1-1.5-.24c-.08-.39-.55-.71-.39-1.27a1.68,1.68,0,0,1,1.81-1,8.75,8.75,0,0,1,1.1.8" style="fill:#fff"/><path d="M263.78,118.52c.47.71.08,1.27-.32,1.83a1.08,1.08,0,0,1-1.42.47c-.47-.47-1.1-.71-1.18-1.43s.71-1.11,1.18-1.35c.79-.32,1.11.48,1.74.48" style="fill:#fff"/><path d="M37,120.82c.08.56-.4.88-.55,1.35-.4.16-.79.48-1.27.32A2.33,2.33,0,0,1,34,121.22a2.05,2.05,0,0,1,1.42-1.58A2,2,0,0,1,37,120.82" style="fill:#fff"/><path d="M203.06,120.82a2.3,2.3,0,0,1,.08,1c-.47.63-1.1,1.19-1.89.79-.47-.48-1-1-.79-1.67a1.55,1.55,0,0,1,2.6-.16" style="fill:#fff"/><path d="M49.7,122c-.16.55-.39,1.11-1.1,1.19s-1-.56-1.34-.87c0-.72-.08-1.44.63-1.83A1.43,1.43,0,0,1,49.7,122" style="fill:#fff"/><path d="M42.13,122.18a1.64,1.64,0,0,1-.79,1.74,1.84,1.84,0,0,1-2.12-1.11A2.23,2.23,0,0,1,40.63,121c.71,0,1.11.79,1.5,1.19" style="fill:#fff"/><path d="M208.27,122a1.57,1.57,0,0,1-.87,1.9c-1,.32-1.73-.47-2.13-1.11.4-.64.47-1.51,1.42-1.67a1.82,1.82,0,0,1,1.58.88" style="fill:#fff"/><path d="M45.84,122.33c.23.56-.24.8-.4,1.19-.39,0-.63.48-1.1.32-.32-.4-1-.55-1-1.11-.08-.8.48-1.19,1-1.51a1.46,1.46,0,0,1,1.5,1.11" style="fill:#fff"/><path d="M254.24,123a2.39,2.39,0,0,1-1.34,1.27c-.63.16-1-.4-1.5-.64s-.24-1-.08-1.42a1.58,1.58,0,0,1,2.92.79" style="fill:#fff"/><path d="M260.23,123.29a2,2,0,0,1-1.89,1.35c-.71-.32-1.5-.87-.95-1.83.32-.31.48-.63.95-.71a1.51,1.51,0,0,1,1.89,1.19" style="fill:#fff"/><path d="M222.77,123.85c.4,1-.54,1.35-1.18,1.82a3.73,3.73,0,0,1-1.5-.63A1.84,1.84,0,0,1,221.2,123a1.89,1.89,0,0,1,1.57.88" style="fill:#fff"/><path d="M201.09,124.8c.4.16.24.71.16,1-.47.32-1.1,1.11-1.81.64a1.34,1.34,0,0,1-.79-1.51,1.47,1.47,0,0,1,2.44-.08" style="fill:#fff"/><path d="M205.51,125.36a1.09,1.09,0,0,1-.63,1.27c-.56.55-1.19-.08-1.74-.24a1.31,1.31,0,0,1-.08-1.19,1.75,1.75,0,0,1,1-.64c.55.16,1.18.16,1.42.8" style="fill:#fff"/><path d="M71.7,125.44c.47.47-.08,1-.16,1.5a1.53,1.53,0,0,1-2,.4c-.79-.32-.71-1.35-.55-2,.47-.15.47-.71,1.1-.71a2.73,2.73,0,0,1,1.58.8" style="fill:#fff"/><path d="M231.21,125.75c.16.8-.63,1.12-1.18,1.27-.95.32-1.42-.39-1.81-1,0-.48.47-.79.63-1.19,1.1-.48,1.81.32,2.36,1" style="fill:#fff"/><path d="M227,125.75c.31.8-.56,1.2-.87,1.59a1.58,1.58,0,0,1-1.74-.32c-.39-.23-.39-.71-.39-1.19.47-.39.71-.87,1.26-1a2.08,2.08,0,0,1,1.74,1" style="fill:#fff"/><path d="M262.52,126.71c.15,1.11-1.27.55-1.82.87-3.31,2-7.57.48-10.72-.71.24-1,1.42-.64,2.05-1,3.39-2.15,6.86.47,10.25.63Z" style="fill:#fff"/><path d="M46.7,125.75l-.31.56c-2.92,1.75-6.7,2.94-10.17,1.83l-.32-.48c2.92-2.15,6.78-2.7,10.57-2.15Z" style="fill:#fff"/><path d="M239.26,126.31a1.82,1.82,0,0,1-.79,1.51,1.56,1.56,0,0,1-2.05-.87c-.24-.64.39-1.27,1-1.51.55,0,1.5.08,1.82.87" style="fill:#fff"/><path d="M60.82,126.63c-.32.63-.16,1.27-1,1.59a1.71,1.71,0,0,1-2-1c-.23-.87.39-1.11.79-1.5.94-.48,1.66.23,2.13.95" style="fill:#fff"/><path d="M55.22,127c.24.55-.24.87-.39,1.27a1.46,1.46,0,0,1-1.58.23,1.83,1.83,0,0,1-.87-1.9,4.29,4.29,0,0,1,1.27-.87A1.77,1.77,0,0,1,55.22,127" style="fill:#fff"/><path d="M244.78,128.85a1.69,1.69,0,0,1-1.27,1.43,1.76,1.76,0,0,1-1.49-.79,1.25,1.25,0,0,1,.31-1.51c.16-.24.71-.24,1-.39a1.68,1.68,0,0,1,1.42,1.26" style="fill:#fff"/><path d="M49.39,128c.23.63-.32.87-.4,1.35-.24,1.35-1.1,2.22-1.73,3.41-1.5,1.83-3.63,1.83-5.76,2.39l-.31-.64a20.66,20.66,0,0,1,8-6.67Z" style="fill:#fff"/><path d="M240.83,129.73c.16,1-.63,1.11-1.18,1.51a1.8,1.8,0,0,1-1.58-1c-.23-.87.55-1.18,1-1.58a1.58,1.58,0,0,1,1.73,1" style="fill:#fff"/><path d="M58.45,129.73c-.08.16.09.31.24.4-.08.87-.71,1.11-1.18,1.5a2.13,2.13,0,0,1-1.74-.79,1.32,1.32,0,0,1,.79-1.82c.71-.08,1.66,0,1.89.71" style="fill:#fff"/><path d="M255.34,132.11c.79-.08,1-1,1.82-1.19a1.93,1.93,0,0,1,1.89.88c.31.95-.4,1.43-1,1.82s-1.73-.47-1.66.56a2.43,2.43,0,0,1,1.11,1.59c-.16.31-.71.24-1,.08-2.28-1-4.73-2.54-5.67-4.93-.32-.71-1.81-1.27-.95-1.9,2.29-.16,4.18,1.67,5.44,3.09" style="fill:#fff"/><path d="M262.91,129.65a1.21,1.21,0,0,1-.08,1.51c-.39.79-1.58.47-2.28.39-.4-.39-.79-.79-.64-1.43a2.53,2.53,0,0,1,1.19-1,2.13,2.13,0,0,1,1.81.55" style="fill:#fff"/><path d="M234.29,133.94a11.42,11.42,0,0,1,1.73,3.18c-.16.24-.55.16-.71.16-2.68-1.51-6.15-3.18-7.17-6.35-.24-.32-.87-.72-.79-1.27,2.05-.4,4,1.11,5.44,2.22.55.79,1.18,1.19,1.5,2.06" style="fill:#fff"/><path d="M54,130.92c.31.71-.32,1.27-.71,1.59a1.82,1.82,0,0,1-1.82-.64c-.55-.87.48-1.58,1.11-1.9.63-.08,1,.55,1.42.95" style="fill:#fff"/><path d="M244.14,132.75c.08.48-.54.79-.78,1.11-.63.08-1.26.32-1.82-.23-.15-.4-.55-1-.07-1.43.86-1.11,2.13-.24,2.67.55" style="fill:#fff"/><path d="M263.78,133.86a1.88,1.88,0,0,1-1.11,2,2.06,2.06,0,0,1-1.89-.71c-.39-.48-.08-1,0-1.51a2,2,0,0,1,2.05-.56,4.42,4.42,0,0,1,.95.79" style="fill:#fff"/><path d="M209.21,144.82c0,1-1.73.71-2.44,1.43-2.45,1.27-5.36,1.27-8.28,1.19V147a11.69,11.69,0,0,1,10.72-2.14" style="fill:#fff"/><path d="M94.17,148.24a1.31,1.31,0,0,1-2.52.55c-.32-.95.47-1.34,1-1.74a1.83,1.83,0,0,1,1.5,1.19" style="fill:#fff"/><path d="M207.87,149.11a2.24,2.24,0,0,1-1.18,1.83c-.71.16-1.18-.24-1.74-.56-.39-.31-.15-.87-.23-1.27a1.69,1.69,0,0,1,3.15,0" style="fill:#fff"/><path d="M223.57,149.43c-2,1.27-4.18,2.78-6.79,2.78l-4.25-.08-.4-.32c2.6-3.17,7.34-3.17,11.44-2.86Z" style="fill:#fff"/><path d="M72.57,151.32a1.46,1.46,0,0,1-1,1.51,1.38,1.38,0,0,1-1-2.55c.86-.55,1.73.4,2,1" style="fill:#fff"/><path d="M76.51,152.11c.24.4-.16.64-.31,1a1.31,1.31,0,0,1-1.5,0,1,1,0,0,1-.47-1.35c.23-.48.71-.4.94-.72a2.24,2.24,0,0,1,1.34,1" style="fill:#fff"/><path d="M46.31,160.14c-.79,1-2.05-.23-2.92-.71-2.76-1.59-2.68-4.69-5.44-6.51.32-.95,1,.08,1.58-.08a10.41,10.41,0,0,0,1.66.87c2.67,1.51,3.31,4,5.12,6.43" style="fill:#fff"/><path d="M276.16,129.33a6.29,6.29,0,0,0-5.92-3.26,5.45,5.45,0,0,0-4.41,3.26,4,4,0,0,0,1.5,4.37,1.23,1.23,0,0,0,1.57-.4c.4-1-.7-1-.86-1.83a2.64,2.64,0,0,1,.86-2.78c.79-.79,2.13-.39,3.08-.39a5.51,5.51,0,0,1,2.36,2.3,6.33,6.33,0,0,1,0,4.21,7,7,0,0,1-4.88,4c-6.55.95-78.38.63-78.38.63-8.44.8-18.06-1.59-25.31,2.86-3.31,1.59-5,5.24-5.84,8.5a58.58,58.58,0,0,0-6.15,6.27l-.23-.23c.39-1.91,1.26-3.58,1.65-5.48,1.18-1.59,1.18-3.74,2.05-5.48,3-4.85,5.84-9.77,10.49-13.18,2-2.63,5.44-2.15,8.44-2.15a21,21,0,0,0,11,1.59.75.75,0,0,0,.23-.56c-1.1-1-2.92-1.43-4.18-2.46-3.15-1.51-6.15.48-9.46.24-.16-.16-.31-.24-.24-.48a46.77,46.77,0,0,1,9.78-5.24,66.3,66.3,0,0,1,8.6-3.41c1.18,0,2.28-1,3.39-.32l4.18-1.12c.15.09.31.32.63.24,3.54-1.19,8-.08,12.06-.15l.55.47,3.79,1c1.42.16,2.05,1.83,3.55,1.91.79-1.11-.87-1.59-1.27-2.3a8.71,8.71,0,0,1,5.29.79l-.79.88c-.48.87.24,1.51.95,1.82.55.16.94-.24,1.33-.39,1-.72-.07-1.43.24-2.07a74.87,74.87,0,0,1,16.8,4.77c1.49.47,2.91,1.58,4.57,1.5-1.66-1.5-3.94-2.3-6-3.17-1.34-.8-3.24-.88-4.26-2,.24-.39.79-.24,1-.55,2.69-.32,5-2.31,6.87-4.45.15-.48,1-.32.94-1-.71-.8-1.89.23-2.84.16-3.31.63-4.73,4.52-8,5.24-4-1-8.12-1.91-12.14-2.94a24.87,24.87,0,0,1-5.92-1.27l-4.41-.4h-8.05c-.07-.16-.31-.24-.23-.47,2.84-.72,5.28-2.39,8.12-3.1l21.13-9.69a52.68,52.68,0,0,0,6-6.51,1.5,1.5,0,0,0-.87-1.51,1.32,1.32,0,0,0-1.58.31c-.95.72,0,1.59,0,2.47a13.37,13.37,0,0,1-3.62,3.09c-.32-.08-21.77,9.77-21.77,9.77a54.46,54.46,0,0,1-9.62,3.58l-4.57.71a3,3,0,0,1-2,1.83c-1.25.24-2.28,1-3.62,1-10.25,4-20.9,8.18-29,16.28a8.91,8.91,0,0,0,.79-3.34c-.16-1.19-.08-2.54-.87-3.49-.18-.44-.76-1.72-.57-2.18l-1.16.75c-.71,1.75-1.34,4.92-.63,6.75.24,1.43,1.42,3.1.31,4.37-3.78,4.6-5.91,10.16-8.43,15.4-.95-.15-1.42-1-1.82-1.9a26.55,26.55,0,0,0,5.6-11.6c.55-.39.16-1.43.71-1.9-.16-1.27.71-2.54.08-3.58.51-1.73-2.3-3.33-.51-4.44l-1.49.71c-3.39,4.45,1.76,11.12-2.1,15.41v.31c-1.1,1.44-1.66,2.87-3.15,3.82-1.9-.8-2.61-2.94-3.71-4.53-1.74-1.66-1.74-5.08-.71-7.39.71-2.3-.47-4.28-.71-6.35l-.79-.47a9.16,9.16,0,0,0-1.1,9.29c.78,1.43.87,3.41,2,4.61.71,2.3,2.13,3.81,3.39,5.87.32.79-.47.95-.87,1.35-.86-.56-.71-1.83-1.5-2.38a57.49,57.49,0,0,0-10.09-14.53c-.16-.72-.87-1.36-.47-2.15a5.8,5.8,0,0,0,1-6c-.15-.4-.63-.88-.55-1.27l-1.18-1c.16,2.78-1.66,5.24-.87,8.18v.16a150.38,150.38,0,0,0-26.25-15.86l-.72,2c2.31.58,8.44,4.31,8.44,4.31a54,54,0,0,1,7.89,4.21c10.72,6,17.82,15.8,22.62,26.76.09.88.87,1.83.32,2.7-1.66-2.54-4-4-6-6-.55-3.74-2.76-7.31-6-8.82-1.19-1.74-3.71-1.9-5.68-2.46l-28.7-.16c-23.34-.32-44.63.72-67.81.32-3.24-.32-7.18-1.43-8.12-4.85a5.26,5.26,0,0,1,0-4.36,4.81,4.81,0,0,1,4-2.15c1.26.16,2.13,1.35,2.68,2.23,0,1-.87,2-1.27,2.85.08.32.4,1,.95.72A3.68,3.68,0,0,0,31.8,132c.08-.56.32-1.35-.23-1.75A5.27,5.27,0,0,0,27.86,127a6.57,6.57,0,0,0-5.36,1.82c-1.89,1.59-1.82,4.45-1.26,6.67,1.26,3.5,5,5.88,8.51,6.36l76.72.32c7.5.39,15.93-.88,23.5.63,2.76.87,5.68,2.94,6.39,6-.09.15-.32.07-.55.07-6.24-4-14.43-5.55-22.4-4.6-3.15-.16-6,1-8.83,1.83a4.49,4.49,0,0,1-3.86-1.27c-2.84-2.55-7.81-2.39-11.43-1.44,0,.24-.08.48.07.56,3.87-.32,6.15,3,9.62,3.42.79.15,1.42-.72,2.13-.08-3.62,1.74-7.1,3.81-11,4.92-1.18-.24-1.81-1.35-2.76-2-1.5-1.66-4.25-.95-6.3-1.11-.72.16-1.35-.31-1.82,0,.63,1.27,2,2,3.39,2.62,2,.88,4.26-.08,6.07,1.11A7.51,7.51,0,0,1,87.08,154c-3.71,1.43-6.79,4.76-10.88,4.52a14.06,14.06,0,0,1-11.68-3.81c-1.26-3.1-4.49-4.76-8-4.6-.24.15-.55.15-.47.55,1.73,1,3.07,3.1,4.81,4.29,1.1,1.35,3.23,0,4.25,1.51a14.23,14.23,0,0,0,5.13,2.22,22,22,0,0,0,4.1,1.12l-.55.31c-7.17,2.38-15.46,2.62-23.5,2.31-2.36-.09-4.65-.8-7-.72a4.5,4.5,0,0,0,1.9,1.11,4.78,4.78,0,0,1-2.13.64,14.46,14.46,0,0,0-3,.79,8,8,0,0,0-3.39.79,16,16,0,0,1-4.49,3.66c0,.32-.08.79.31.79,1.5-.63,3.39-.16,4.89-.79,2.6-.24,4.1-3.1,6.15-4.29,2.21-1.75,5.36-1.35,8.05-1,1.57.4-.17,1,.31,2.06.63.56,1.18,1.19,2.05,1a1.4,1.4,0,0,1,.55-.4,1.82,1.82,0,0,0,.08-2c1.1-.71,2.6.08,3.78-.39,3-.08,6-.72,8.92-.8.47-.08,1-.56,1.49-.08-.23.64-1,.72-.7,1.59.15.71.94,1,1.57,1.19.79-.32,1.5-.87,1.18-1.9-.15-.56-.78-.64-1.18-.88,1.66-.79,3.55-1,5.2-1.82a14.74,14.74,0,0,0,3.32-1.12c1-.07,1.89-1,2.83-.63a16.15,16.15,0,0,1-1.65,3.81c-1.26,4.21-2.21,9.77,0,13.82.24.08.31-.08.47-.16-1.65-4.21-.71-9.05.71-13,1.1-6.75,8-8.74,13-11.28l.24.32c-1.34,3.49-3.31,6.83-3,11,.16.71-.31,1.42,0,1.9,1.34-.72,2.21-2.3,2.92-3.65.55-3.58-1.5-8,2.13-10.64,6.46-2.54,12.54-5.88,20-6,.23.24.79-.16.86.32-1.57,1.74-3.86,3.41-4.57,5.56-2.52,3.49-2.44,9.45-1.34,13.73.71,2.47-1.42,3.82-2.44,5.72-.49.68-.63,1.83-1.09,2.61l1.56.17a8.41,8.41,0,0,0,2.68-5.24,2.18,2.18,0,0,0,1.5,1.59c.55-.87-.48-1.51-.56-2.38,1.27-.72,1.82.87,2.84,1.19,1.66.4,3.08,1.11,4.81,1.11l.56-.55c-1.74-2.71-5.21-3.18-8.21-3.34-1.57-2.62-1.57-5.88-1.42-9.05a14.09,14.09,0,0,1,1.58-4.93,12.17,12.17,0,0,1,2.21-3,11,11,0,0,1,5-2.7H120a.35.35,0,0,0,.08.24c-2.13,1.67-2.36,4-3.62,6s-2,4.68-.71,6.9c.47,1,.23,2.63,1.34,3.34,1-1.42,1.1-3.25,1.65-4.84-.23-2.62-1.81-5.09-.31-7.63.79-2,2.44-2.78,4.26-3.49,4.33-.4,8.12,1.83,11.9,3.49.79.56,2.13,1,2.29,2.15a6.45,6.45,0,0,1-10.1,5.24,5.47,5.47,0,0,1-1.26-4.85,3.29,3.29,0,0,1,3.48-1.27c.78.4,1.49,1.2,2.52.72a1,1,0,0,0,.31-1.27c-.86-.48-1.18-1.67-2.36-1.83-1.5-.24-3.32-.16-4.34.88a5.57,5.57,0,0,0-1.81,5.56,6.78,6.78,0,0,0,4.88,5.08,9.15,9.15,0,0,0,9.7-3.34,10.58,10.58,0,0,0,1.74-3.41,20.54,20.54,0,0,1,8.12,10.48c0,1.35.4,2.78.08,4l2.76.24a2.63,2.63,0,0,1,.24-1.91c1-5.24,4.25-9.61,8.12-13,1.34-.8,1,1,1.34,1.59a10.62,10.62,0,0,0,6.86,6c3.31.55,6.46-.24,8.51-2.79,1-1.9,2.29-4.68.56-6.67a5.46,5.46,0,0,0-4.34-2.06c-2,0-3.31,1.43-4.34,2.94,0,.63-.08,1.35.48,1.66.31,0,.94.08,1.18-.39.16-1.2,1.18-1.75,2.13-2.39a2.46,2.46,0,0,1,2.52.48,4.11,4.11,0,0,1,1.1,3.1,4.75,4.75,0,0,1-2.6,3.73,8,8,0,0,1-7.57-.71,18.06,18.06,0,0,1-2.21-3.5c-.15-1.27-.63-2.38,0-3.65a26.52,26.52,0,0,1,11.28-4,8,8,0,0,1,4.18,2.62c3.62,3.73-.79,9,1.73,13.18.95-.16.95-1.43,1.34-2.22,1.19-2.86-.31-6-1-8.74-1-1.75-1.5-3.25-3-4.68a2,2,0,0,1,.95-.16,19.61,19.61,0,0,1,4.81,4.13,21.34,21.34,0,0,1,3.07,13c-.62,2.38-3.15,3.5-5.12,4.37a7.34,7.34,0,0,0-2.13,2.54c1,.56,2.29,0,3.23-.4,1.5-.55,2.37-2.46,3.4-3.33.15.08.07.32.15.48.08.87-.39,2.06.39,2.3a27,27,0,0,0,.71-4c1,1.11,1.19,2.54,1.5,4,.71,1.43,1.9,3.33,3.79,3.57.47-.71-.08-1.43-.24-2.06-.24-2-1.89-3-3-4.45-2.77-3.81-1.5-9.77-3.63-14.06-.79-2.3-2.45-4-4.26-5.87l.31-.32c3.87-.08,7.1,1.19,10.65,1.91,4.34,2.14,10.64,1.66,12.7,7.3a20.72,20.72,0,0,0,4.49,8.58l.24-.16a3.24,3.24,0,0,0,0-2.94c-.48-4-3.95-4.92-5.76-8.26l.23-.32a54.83,54.83,0,0,1,5.76,1.83c6.31,1.75,10.72,7.94,11.51,14.38A31,31,0,0,1,218,182.85c-.24.64-1.34,1.36-.64,1.91.87-.63,1-1.67,1.5-2.38a22.12,22.12,0,0,0,2.61-16c-.08-1-1.26-1.83-.72-2.86a2.54,2.54,0,0,0,1.35.71c.47-.32,1.18-.32,1.5-.87.07-.48.39-1,0-1.43a2.17,2.17,0,0,0-2.29-.56,3.76,3.76,0,0,0-.95,1.75,16.51,16.51,0,0,0-2.84-4.21l.16-.24c3.55,1.19,6.78,2.94,10.41,3.89a5.14,5.14,0,0,0,2.76.88c3.08,1.19,6.46,1.66,9.7,2.46,2.36-.24,4.33.87,6.7.32v-.16l-.08.08c-.87-1.12-2.76-.08-3.78-.88a59,59,0,0,1-15.54-3.89c.08-.24.4-.16.63-.16a2,2,0,0,0,1.26-2,2.11,2.11,0,0,0-1.81-.88,2.25,2.25,0,0,0-1.18,1.35,2,2,0,0,0,1.18,1.51c-.16.16-.47.09-.71.09-2.44-1.12-4.81-2.15-7.17-3.26-.87-.16-1.58-.88-2.45-1-1.81-.87-3.63-1.74-5.44-2.46-5-2.62-10.64-4.05-16-6-1.19-.32-2.29-.64-3.4-1-2-.55-3.94-1-5.91-1.58-6.7-1.67-15.69-1.83-21.53,1.82-.94-.32-1.49,1.19-2,.24,1.66-4.37,6.47-5.8,10.8-6,31.62-.32,61.27-.56,92.42-1,3.63,0,7.17-1.27,9.07-4.52a8,8,0,0,0,.55-7.31m-125.37,29.3c-.32,1-.95,1.75-.87,2.78l-.32.16c.24-1.19-.94-1.9-.63-3.18-.63-.95-.63-2.14-1.18-3.17-.71-1.27.63-1.83,1.18-2.7,1.11.48,1.5,1.51,2.29,2.46.47,1.35-.55,2.38-.47,3.65" style="fill:#fff"/><path d="M236.34,153.62c0,.24.47.32.31.72-2.75,2.46-6.62,3.17-10.56,3.33-.32.08-.63.32-1,.24-.24-.16-.32-.4-.16-.55a12,12,0,0,1,11.43-3.74" style="fill:#fff"/><path d="M223.64,154.9c.32,1.11-.39,1.74-1.26,2.14a2.25,2.25,0,0,1-1.73-1.27c-.24-.64.31-1,.55-1.35a1.49,1.49,0,0,1,2.44.48" style="fill:#fff"/><path d="M73.75,155.05a1.63,1.63,0,0,1-.39,1.67,1.6,1.6,0,0,1-1.42.4c-.56-.08-.87-.72-1-1.19a1.72,1.72,0,0,1,1-1.51c.63,0,1.34-.08,1.81.63" style="fill:#fff"/><path d="M59.63,160.22v.56a6.13,6.13,0,0,1-5.12-1.19,10.56,10.56,0,0,0-4.18-4c0-.24-.47-.56,0-.72,3.94,0,6.31,3.18,9.3,5.32" style="fill:#fff"/><path d="M248.32,155c-1.81,2.7-3.39,6-6.62,7.22-.55,0-1,.8-1.5.24,1.27-3,3.94-6.27,7-7.54a2.57,2.57,0,0,1,1.1.08" style="fill:#fff"/><path d="M78.32,155.93c.08.87-.55,1-1.1,1.51-.63.08-.94-.4-1.34-.88-.32-.79.4-1.11.79-1.5a1.62,1.62,0,0,1,1.65.87" style="fill:#fff"/><path d="M258.26,156.41c-.71,1-.4,2.54-1.1,3.65-1.58,1.83-2.92,3.89-5.45,4.29-.39-.79.56-1.59.95-2.31,1.11-2.38,2.68-5.08,5.2-6.11Z" style="fill:#fff"/><path d="M35.19,157.12a1.57,1.57,0,0,1,0,1.75,1.86,1.86,0,0,1-1.81.32,1.48,1.48,0,0,1-.63-1.91c.47-.71,1.89-1.11,2.44-.16" style="fill:#fff"/><path d="M30.7,158.08c.08.39.31.71.23,1.11a1.81,1.81,0,0,1-1.1.95,1.64,1.64,0,0,1-1.81-1,1.57,1.57,0,0,1,.78-1.67,1.6,1.6,0,0,1,1.9.64" style="fill:#fff"/><path d="M40,158.55c.16.64.32,1.75-.63,1.91-1.1.48-1.73-.32-2.36-1a1.79,1.79,0,0,1,.94-1.59,2.19,2.19,0,0,1,2,.63" style="fill:#fff"/><path d="M52.93,159.59c-.08.55.08,1.35-.55,1.51-.39.39-1.1.24-1.5.16-.16-.48-1-.88-.55-1.43a3.07,3.07,0,0,1,1.1-.88c.48.24,1.19,0,1.5.64" style="fill:#fff"/><path d="M265.83,160.14c-.24.56-.55,1.28-1.19,1.28s-1.42-.16-1.81-.88c-.31-.87.39-1.35,1-1.59.78,0,1.81.32,2,1.19" style="fill:#fff"/><path d="M251.4,160.54c.08.64-.63,1.12-1,1.35A1.89,1.89,0,0,1,248,160.7a2,2,0,0,1,1.34-1.43,2.08,2.08,0,0,1,2.05,1.27" style="fill:#fff"/><path d="M261.18,160.38a1.64,1.64,0,0,1-.71,1.35,1.84,1.84,0,0,1-1.9-.31c-.7-.64-.15-1.2.32-1.67.71-.4,2.05-.32,2.29.63" style="fill:#fff"/><path d="M33.14,161.73a1.67,1.67,0,0,1-.94,2,1.83,1.83,0,0,1-1.74-1.11,1.5,1.5,0,0,1,.79-1.67,1.8,1.8,0,0,1,1.89.79" style="fill:#fff"/><path d="M247.46,162.61a1.75,1.75,0,0,1-1.11,2.06c-.63.16-1-.16-1.5-.55-.31-.4-.71-1.27-.07-1.67.63-1.19,2.2-.72,2.68.16" style="fill:#fff"/><path d="M75.56,163.48c.32.88-.62,1-.86,1.51-.32.16-1,.24-1.18-.08-.4-.47-.87-.95-.64-1.67.4-.31.55-.63,1-.79.87-.24,1.18.56,1.65,1" style="fill:#fff"/><path d="M264.41,164c.16.55-.31.79-.4,1.19a2.1,2.1,0,0,1-1.81.32c-.71-.4-.71-1-.71-1.75.47-.31.55-.71,1.1-.87a1.82,1.82,0,0,1,1.82,1.11" style="fill:#fff"/><path d="M259.52,164.28c.32.95-.55,1.43-1.18,1.66-.32.08-.79-.15-.87.32,2,1,3.31,2.7,4.89,4.21v.64c-2.84-.08-5.76-.8-7.81-3-.55-.4-1.5-.4-2.13-1,1-1,2.92-.63,4.34-.71,1-1.11-1.18-1.9.16-2.86.47-.07.79-.55,1.42-.39a2.64,2.64,0,0,1,1.18,1.11" style="fill:#fff"/><path d="M227.27,164.36c.16.4-.31.87-.39,1.27a1.58,1.58,0,0,1-1.74.31c-.39-.55-1-1-.79-1.82.63-1.19,2.68-1,2.92.24" style="fill:#fff"/><path d="M51,167.12c-.23.72-.55,1.19-1.34,1.27a1.57,1.57,0,0,1-1.42-.95c-.08-.56.32-.87.4-1.27.87-.72,2.44-.24,2.36,1" style="fill:#fff"/><path d="M57.35,166.11c0,1.11-1.18,1.74-1.58,2.85-1.18,2.63-3.31,5-6.3,5.25-.32-.72,1-1.59,1.34-2.3,1.25-2.71,3.78-4.13,6.07-5.8Z" style="fill:#fff"/><path d="M225.38,167.2A2.09,2.09,0,0,1,224,169c-.71.24-1.27-.32-1.66-.64-.63-.63-.23-1.27.08-1.9.95-1,2.29-.16,2.92.71" style="fill:#fff"/><path d="M230.27,167.76a1.94,1.94,0,0,1-1.42,1.74c-.16-.23-.55-.07-.79-.16a1.74,1.74,0,0,1-1-1.42c.4-.4.56-1,1.11-1.11.71-.09,1.89,0,2.13.95" style="fill:#fff"/><path d="M69.57,167.68a1.7,1.7,0,0,1-1.18,1.66,1.52,1.52,0,0,1-1.5-1c-.16-.71.55-1.19.94-1.58,1-.32,1.19.39,1.74.87" style="fill:#fff"/><path d="M75,168a1.85,1.85,0,0,1-1.49,1.34c-.56-.15-1.19-.31-1.43-1-.07-.79.56-1.19,1.11-1.58A1.65,1.65,0,0,1,75,168" style="fill:#fff"/><path d="M247.22,173.56c.4.32,1.1.72.94,1.27-1.26.56-2.28-.87-3.46-1.11a16.25,16.25,0,0,1-4.1-6.35c.71-.72,1.5.16,2.13.4a15.51,15.51,0,0,1,4.49,5.79" style="fill:#fff"/><path d="M250.14,168a2,2,0,0,1-.16,1.74c-.47.8-1.5.64-2.21.48-.39-.48-1.1-1.11-.63-1.83.24-.63,1-.79,1.5-1,.55-.08.94.4,1.5.64" style="fill:#fff"/><path d="M82.26,170.06c.09.64.24,1.59-.54,2a1.54,1.54,0,0,1-1.9-1c-.39-1,.47-1.12,1-1.59.63-.16,1,.16,1.49.55" style="fill:#fff"/><path d="M230,175.23a11.65,11.65,0,0,1,2.05,5.64c-.24.56.39,1.11-.08,1.51h-.31c-3.55-2.54-4.34-6.12-5.68-9.69a.65.65,0,0,1-.32-.79c.79-.72,1.34.71,2.13.95Z" style="fill:#fff"/><path d="M92.52,172.53c-.08.08,0,.16.08.16-3.16,2.22-7.57,3.57-11.2,1.43a.61.61,0,0,1,.39-.72c2.29-.71,4.5-1.82,6.94-1.51Z" style="fill:#fff"/><path d="M74.54,172.93c-2.68,1.66-5.13,4.92-8.44,5.71-.63.24-1,1.12-1.81.64,1.42-4.29,6.07-6.59,10.25-7Z" style="fill:#fff"/><path d="M225.38,176.5c.23.64,0,1.51-.63,1.67a1.09,1.09,0,0,1-1.5,0c-.71-.31-.71-1-.71-1.59.23-.55.79-.63,1.18-.87.71.16,1.26.16,1.66.79" style="fill:#fff"/><path d="M218.83,176.9A4.43,4.43,0,0,1,216,179c-2.68.95-5.12-.32-7.49-1,.08-.63.87-.39,1.26-.79,2.61-.56,5.29-1.11,8.05-.4a.82.82,0,0,1,1,.08" style="fill:#fff"/><path d="M74.54,179.21c-.24.31-.32,1-1,1.27a1.65,1.65,0,0,1-1.57-.32c-.16-.48-.71-.88-.32-1.43.16-.56.79-.72,1.26-.87a1.68,1.68,0,0,1,1.58,1.35" style="fill:#fff"/><path d="M79.19,179.92a2.91,2.91,0,0,1-1.1,1.51,1.74,1.74,0,0,1-1.58-.55,1.9,1.9,0,0,1-.23-1.59c.15-.4.7-.48,1.1-.72.79-.07,1.5.72,1.81,1.35" style="fill:#fff"/><path d="M223.88,180.72a2.14,2.14,0,0,1-.55,1.51,1.36,1.36,0,0,1-1.74.32c-.55-.08-.71-.72-.94-1.12-.48-.63.31-1,.55-1.58a1.72,1.72,0,0,1,2.68.87" style="fill:#fff"/><path d="M227.35,180.56c.08.4.32.79.16,1.11-.48.4-.79,1.43-1.74,1-.47.16-.7-.47-.94-.63a1.51,1.51,0,0,1,.94-2.15c.71-.24,1.19.4,1.58.64" style="fill:#fff"/><path d="M76.35,182.85a2.13,2.13,0,0,1-.79,2.14c-.86.16-2,.16-2.28-.87a2.14,2.14,0,0,1,.94-2.31,1.91,1.91,0,0,1,2.13,1" style="fill:#fff"/><path d="M80.85,182.55c-.16,2.22-.63,4.92-2.84,6.19-1.27.24-2.53,1.43-3.79.64V189c1.66-2.38,4.66-4.21,6.63-6.43" style="fill:#fff"/><path d="M211.5,184.36c.31.47-.24.87-.47,1.27-.47.55-1.34.31-1.89.08a1.21,1.21,0,0,1-.4-1.59,1.61,1.61,0,0,1,1-.88,2.15,2.15,0,0,1,1.74,1.12" style="fill:#fff"/><path d="M88.73,188c1.1,1.83.48,4.29,1.1,6.28-1.33.16-1.89-1.35-2.75-2.14-1.74-2.39-1.5-5.57-2.29-8.34a.41.41,0,0,1,.55-.16c1.18.79,2,2.3,3,3.33-.16.56.47.56.39,1" style="fill:#fff"/><path d="M215.44,185c0,.64-.71.8-1.1,1.19a2.9,2.9,0,0,1-1.5-.71c-.24-.8.4-1,.79-1.43a1.31,1.31,0,0,1,1.81,1" style="fill:#fff"/><path d="M224.83,192.07c0,.24-.08.71-.48.55H224c-2.29-2.06-4.58-4.36-4.26-7.54l.47-.08c2.13,1.83,4.5,3.81,4.58,7.07" style="fill:#fff"/><path d="M218.91,189.52a1.82,1.82,0,0,1-.71,1.51c-.87.24-2.2.16-2.36-1-.08-.79.79-1.19,1.18-1.59a1.62,1.62,0,0,1,1.89,1.11" style="fill:#fff"/><path d="M213.71,191.19c-1.11,2.94-4.1,4.45-6.15,6.68-.4-.24-.24-.88-.16-1.2a11,11,0,0,1,6.07-7.14c1.26.16,0,1,.24,1.66" style="fill:#fff"/><path d="M219.62,193.58c0,.71-.71,1-1.1,1.43a2.34,2.34,0,0,1-1.74-.88c-.08-.79.55-1,1-1.42a1.63,1.63,0,0,1,1.81.87" style="fill:#fff"/><path d="M161,49.39a2,2,0,0,1,0,3.93H137.57a2,2,0,0,1,0-3.93Zm-16.53,3.4c2.28,0,.12-2.77-1.11-2.77H141c-2.29,0-.12,2.77,1.1,2.77Zm9.58,0c2.28,0,.12-2.77-1.11-2.77h-2.28c-2.29,0-.13,2.77,1.1,2.77ZM161.06,50h-.87c-2.29,0-.35,2.77.88,2.77,1.52,0,1.62-2.77,0-2.77" style="fill:#fff"/><path d="M158.9,76.22l4.47,1.71,4.39-1.71L166,82.79l3.48-.72-1.18,4,1.18,3.83-3.08-.84,1.34,7.09-4.39-1.71-4.47,1.71,1.82-7.09-3.56,1,1-4-1-3.83,3.4.56Zm6.59,11.86c1,0,1.09-1.38,1.09-2.58,0-2.71-2.14,0-3.24-2.55-.8,2.15-3,.16-3,2.47,0,1.59,0,2.66,1.58,2.66Zm-4.37-2.44c0,1,1.38.34,2.41.34s2.41.69,2.41-.34c0-1.47-1.38-1-2.41-1s-2.41-.51-2.41,1" style="fill:#fff"/><polygon points="148.44 85.9 148.44 85.06 147.69 84.92 148.28 84.31 147.92 83.64 148.68 83.72 149.15 82.91 149.6 83.71 150.38 83.64 150.01 84.31 150.6 84.92 149.85 85.06 149.85 85.9 149.15 85.37 148.44 85.9" style="fill:#fff"/><polygon points="144.98 90.37 144.98 89.54 144.23 89.39 144.81 88.78 144.45 88.11 145.22 88.19 145.68 87.38 146.14 88.18 146.91 88.11 146.55 88.78 147.14 89.39 146.39 89.54 146.39 90.37 145.68 89.84 144.98 90.37" style="fill:#fff"/><polygon points="150.86 89.79 150.86 88.96 150.11 88.82 150.7 88.2 150.34 87.53 151.1 87.62 151.57 86.8 152.02 87.61 152.8 87.53 152.44 88.2 153.02 88.82 152.28 88.96 152.28 89.79 151.57 89.26 150.86 89.79" style="fill:#fff"/><polygon points="151.55 93.13 151.55 92.66 151.13 92.58 151.46 92.24 151.26 91.86 151.69 91.9 151.95 91.44 152.21 91.9 152.65 91.86 152.44 92.24 152.77 92.58 152.35 92.66 152.35 93.13 151.95 92.83 151.55 93.13" style="fill:#fff"/><polygon points="146.09 96.95 146.09 95.52 144.81 95.28 145.81 94.23 145.19 93.08 146.5 93.22 147.3 91.82 148.08 93.2 149.41 93.08 148.79 94.23 149.79 95.28 148.51 95.52 148.51 96.95 147.3 96.04 146.09 96.95" style="fill:#fff"/><polygon points="148.87 22.03 151.65 28.86 158.68 26.79 155.11 33.23 161.1 37.48 153.88 38.69 154.31 46.05 148.87 41.11 143.43 46.05 143.87 38.69 136.64 37.48 142.63 33.23 139.06 26.78 146.09 28.86 148.87 22.03" style="fill:#fff"/><path d="M123.43,175.19c-.83.31-1.16.54-1,1.41l1,4.18a3.77,3.77,0,0,1-.28,2.75,5.13,5.13,0,0,1-2.86,1.7,5.79,5.79,0,0,1-3.37-.07,2.48,2.48,0,0,1-1.64-2.11l-1-4.39c-.26-1.1-.67-1-1.56-.9l-.08-.32,5.28-1.27.09.32c-1,.29-1.51.42-1.24,1.58l1,4.38c.18.75.61,2.56,2.86,2a2.55,2.55,0,0,0,2.11-3.52l-1-4c-.19-.8-.48-1.2-1.84-.93l-.08-.33,3.44-.83Z" style="fill:#fff"/><path d="M131.27,176.07a3.37,3.37,0,0,0-3.62-1.75c-.81.18-1.59.77-1.4,1.62s.52.93,2,1.2l2.52.44a2.81,2.81,0,0,1,2.26,2c.25,1.16-.4,3-3.29,3.62a12.93,12.93,0,0,1-2.78.15c-.33.08-.36.33-.37.56l-.46.1-.71-3.26.45-.1a3.34,3.34,0,0,0,3.84,2.1c1.89-.42,1.68-1.74,1.64-1.91-.2-.88-1-1-2.12-1.21l-1.14-.19c-2.92-.48-3.17-1.61-3.3-2.22-.18-.81-.09-2.7,2.89-3.37a14.13,14.13,0,0,1,2.55-.11c.36-.08.39-.3.42-.57l.47-.1.63,2.86Z" style="fill:#fff"/><path d="M141.67,181.25l-5.71.55,0-.33c1.16-.19,1.54-.26,1.43-1.39l-.67-7.08c-1.11.16-2.76.39-2.88,2.57l-.46,0-.21-2.7,9.61-.93.29,2.7-.47,0c-.52-2.12-2.18-2-3.29-2l.67,7.08c.12,1.15.5,1.14,1.69,1.09Z" style="fill:#fff"/><path d="M155,181.26l-3.29-.06-3.25-4.3h-.43l0,2.64c0,1.08.33,1.13,1.39,1.27v.34L144,181v-.34c1.09-.08,1.41-.12,1.43-1.21l.12-6c0-1.16-.47-1.2-1.39-1.27v-.34l5.18.11c1.12,0,4.52.19,4.48,2.46,0,1.66-1.7,2.05-2.57,2.26l3.16,3.91a.78.78,0,0,0,.65.27Zm-7-4.8c2.1,0,2.95-.25,3-2a1.7,1.7,0,0,0-1.91-2c-.88,0-.91.14-1,.55Z" style="fill:#fff"/><path d="M165.6,182.62l-5.17-.65,0-.33c1,.05,1.29.08,1.34-.36a7.18,7.18,0,0,0-.51-1.88l-3.59-.45a8.09,8.09,0,0,0-.92,1.64c-.06.51.7.65,1.24.74l0,.34-3.24-.41,0-.33c.87,0,1.15-.43,1.76-1.37l4.45-6.9.45.06,2.68,7.49c.54,1.52.74,2,1.51,2.08Zm-4.48-3.77-1.21-3.45-1.9,3.06Z" style="fill:#fff"/><path d="M175,184.52l-9.15-1.68.06-.34c.91.07,1.39.12,1.54-.69l1.16-6.42c.16-.88-.49-1-1.19-1.2l.06-.33,5.52,1-.06.33c-1.11-.16-1.61-.24-1.82.93L170,182.4c-.12.64.21.81,1.27,1a3.93,3.93,0,0,0,4.47-1.86l.46.08Z" style="fill:#fff"/><path d="M181,185.89l-5.51-1.16.07-.33c.86.11,1.49.19,1.66-.63l1.32-6.39c.18-.88-.56-1.06-1.27-1.25l.06-.33,5.51,1.16-.06.33c-.75-.13-1.51-.27-1.69.62l-1.33,6.39c-.17.85.45,1,1.3,1.26Z" style="fill:#fff"/><path d="M192.21,187.31l-5.19-.53,0-.34c1,0,1.29.05,1.33-.39a6.77,6.77,0,0,0-.55-1.86l-3.6-.37a7.68,7.68,0,0,0-.88,1.65c-.06.51.71.63,1.25.72l0,.33-3.25-.33,0-.34c.87,0,1.15-.45,1.73-1.41l4.3-7,.45.05,2.85,7.43c.57,1.51.78,2,1.55,2Zm-4.56-3.67-1.28-3.43-1.84,3.1Z" style="fill:#fff"/><path d="M151.09,78.4c0-3.25-1.82-.21-2.82-3-.74,2.33-2.93.36-2.93,2.87a2,2,0,0,0,.72,1.82v1a.45.45,0,0,0,.44.45h3.44a.45.45,0,0,0,.45-.45v-1a2.08,2.08,0,0,0,.7-1.65m-2.81.62c-.94,0-2.22.65-2.22-.47,0-1.59,1.08-1.24,2-1.24s2.42-.35,2.42,1.24c0,1.12-1.27.47-2.22.47" style="fill:#fff"/><path d="M179.3,118.2a1.32,1.32,0,1,0-1.48-1.31,1.4,1.4,0,0,0,1.48,1.31" style="fill:#fff"/><path d="M172.32,70.17a8.25,8.25,0,0,0-.7,1.4.71.71,0,1,0,1.41,0s-.71-1.4-.71-1.4" style="fill:#fff"/><path d="M124.69,70.17a8.25,8.25,0,0,0-.7,1.4.71.71,0,1,0,1.42,0s-.72-1.4-.72-1.4" style="fill:#fff"/><path d="M136.6,70.17a8.25,8.25,0,0,0-.7,1.4.71.71,0,1,0,1.41,0s-.71-1.4-.71-1.4" style="fill:#fff"/><path d="M148.5,70.17a8.25,8.25,0,0,0-.7,1.4.71.71,0,1,0,1.42,0s-.72-1.4-.72-1.4" style="fill:#fff"/><path d="M160.41,70.17a8.25,8.25,0,0,0-.7,1.4.71.71,0,1,0,1.42,0s-.72-1.4-.72-1.4" style="fill:#fff"/><path d="M124.71,86.51a7.88,7.88,0,0,1,.7,1.4.71.71,0,1,1-1.42,0s.72-1.4.72-1.4" style="fill:#fff"/><path d="M124.71,102.4a8.1,8.1,0,0,1,.7,1.39.71.71,0,1,1-1.42,0s.72-1.39.72-1.39" style="fill:#fff"/><path d="M126.62,115a7.88,7.88,0,0,1,.7,1.4.71.71,0,1,1-1.42,0s.72-1.4.72-1.4" style="fill:#fff"/><path d="M136.6,121.66a8.5,8.5,0,0,1,.7,1.39.71.71,0,1,1-1.41,0s.71-1.39.71-1.39" style="fill:#fff"/><path d="M172.92,86.51a7.88,7.88,0,0,0-.7,1.4.71.71,0,1,0,1.42,0s-.72-1.4-.72-1.4" style="fill:#fff"/><path d="M172.92,102.4a8.1,8.1,0,0,0-.7,1.39.71.71,0,1,0,1.42,0s-.72-1.39-.72-1.39" style="fill:#fff"/><path d="M171,115a7.93,7.93,0,0,0-.69,1.4.74.74,0,0,0,.7.77.75.75,0,0,0,.71-.77S171,115,171,115" style="fill:#fff"/><path d="M161,121.66a8.54,8.54,0,0,0-.69,1.39.75.75,0,0,0,.71.78.74.74,0,0,0,.7-.78s-.72-1.39-.72-1.39" style="fill:#fff"/><path d="M148.87,128.74a8.1,8.1,0,0,0-.7,1.39.71.71,0,1,0,1.42,0s-.72-1.39-.72-1.39" style="fill:#fff"/><path d="M168.24,105c.15.22.53.3,1,.14l.45-1.28a1,1,0,0,0-.85-.52c-1.27.3-2.62.45-3.37,1.66a2.5,2.5,0,0,0,1.2,2c.45-.15.52.3.82.53a.53.53,0,0,1-.52.68c-.9-.91-2.47.3-3.15-.83.3-1.13.91-2.42-.07-3.47.07-.23.45-.46.22-.68-.37-1.06-1.49-.23-2.17-.23a2.88,2.88,0,0,0-2.7,1.36,2.17,2.17,0,0,0,.6,1.13c.3-.08.45,0,.53.3l-.75.46a1.63,1.63,0,0,1,.3.83c-.53.22-1.05-.53-1.27-.91,0-.6.07-1.66-.75-1.81a3.19,3.19,0,0,0-.65.22,2.19,2.19,0,0,0-.31,1.25,5.17,5.17,0,0,0,.29,1.35,13.1,13.1,0,0,1,2.84,2.76c-.68,1.36-.68,3.25-2.25,4-.45.3-.45.75-.45,1.21l.38.3c1-.53,2.84-.68,2.69-2.34a6,6,0,0,1,1.43-2,1.56,1.56,0,0,1,1.72.83,3,3,0,0,1-2,2.26c-.15.15-.08.38-.08.61.3.53,1.13.3,1.57.22,1.28-.83,1.81-2.33,2.93-2.79.15.75-1.5,1-.45,1.74.67-.16,1.57.07,2-.83-.53-1.28,1.8-1.89.37-3,0-1.13,1.2-1.59,1.13-2.79-.45-1.21-1.88-1.21-2.25-2.34a1.65,1.65,0,0,1,1.57,0" style="fill:#fff"/><path d="M113.53,118.78a1.32,1.32,0,1,0-1.49-1.32,1.41,1.41,0,0,0,1.49,1.32" style="fill:#fff"/><path d="M36.31,163.88a1.41,1.41,0,1,0-1.47-1.4,1.43,1.43,0,0,0,1.47,1.4" style="fill:#fff"/><path d="M85.46,174.85h-.1l-.1-.12h0v.08s0,0,0,0h-.16s0,0,0,0v-.18s0,0,0,0h.15s.14,0,.14.07,0,.05-.08.06l.1.11h0Zm-.21-.14c.06,0,.09,0,.09-.05a.05.05,0,0,0-.06-.06s0,0,0,0Z" style="fill:#fff"/><path d="M85.66,174.66s0-.08-.09-.08a0,0,0,0,0,0,0s0,0,0,0l.07,0a.08.08,0,0,1,0,.07s0,.08-.12.08h-.11v-.1h0s0,.09.09.09.06,0,.06-.05,0,0,0,0l0,0c-.08,0-.08-.06-.08-.08s0-.08.1-.08h.08s0,0,0,0h0v.09Z" style="fill:#fff"/><path d="M86.15,174.6l0,0-.09.24h0l-.08-.19h0l-.09.19h0l-.1-.24s0,0,0,0h.14s0,0,0,0v0l.06.14h0l.06-.12,0,0s0,0,0,0H86s0,0,0,0,0,0,0,0l0,.14h0l0-.14h0s0,0,0,0h.08Z" style="fill:#fff"/><path d="M86.17,174.84a.11.11,0,0,0,.12-.1h0a.09.09,0,0,1-.09-.08.1.1,0,0,1,.11-.09.11.11,0,0,1,.11.12c0,.07-.07.14-.21.15Zm.11-.11h0v0c0-.08,0-.1,0-.1s0,0,0,.06,0,.08,0,.08" style="fill:#fff"/><path d="M86.44,174.66h.1s0,0,0,.08,0,.09-.14.09-.06,0-.06,0a0,0,0,0,1,0,0s.06,0,.09,0a0,0,0,0,0,0,0s0,0,0-.05a.16.16,0,0,0-.1,0l0-.14h.15l0,.05h-.13Z" style="fill:#fff"/><path d="M176.27,68.29v0h-55v0h0l0,42c0,4.29,1.82,8,4.32,9.18l21.13,13.42a2.58,2.58,0,0,0,1.93.87,2.54,2.54,0,0,0,1.72-.67l21.46-13.62c2.51-1.15,4.32-4.89,4.32-9.18l.05-42Zm-1.55,42.55c-.29,3.19-1.37,5.83-3.56,7.33l-20.72,13.17h-.11a2.61,2.61,0,0,1-1.6.56,2.54,2.54,0,0,1-1.62-.58l-20.68-13.15c-2.2-1.5-3.28-4.14-3.57-7.33V69.77h51.86Z" style="fill:#fff"/><path d="M156.19,129.49l.67-.32a3.51,3.51,0,0,0-.67.32" style="fill:#fff"/><path d="M114.74,186.9l-5.18.6,0-.34c1-.18,1.27-.23,1.22-.67a7.11,7.11,0,0,0-.94-1.7l-3.59.42a8.19,8.19,0,0,0-.51,1.81c.06.51.83.46,1.38.43l0,.33-3.25.38,0-.33c.86-.21,1-.7,1.39-1.76l2.7-7.75.45-.06,4.37,6.64c.89,1.35,1.2,1.78,2,1.66Zm-5.24-2.6-2-3.07-1.12,3.43Z" style="fill:#fff"/><path d="M205.74,167.2a8.31,8.31,0,0,0-5.36-4.92c-2.52-.55-5.2-.16-6.86,1.75-2.83,2.3-.86,6.11-.79,9.21,0,.64.08,1.11-.55,1.43-11.43-1-22.08-3.89-33.43-5.08-2.61-.45-5.23-.33-7.71-.86l-3.17-.33c-9.86.31-19.72.87-28.94,3.25-2,.64-4.18.8-6.15,1.51-1.42-.24-2.6.8-3.94.4l-2.6.61a2.07,2.07,0,0,1-.87-.06c-1.26-3.25,2.52-5.24,1.34-8.41-1-1.83-3.08-3.58-5.44-3.26A6.58,6.58,0,0,0,95,165.7c-1.81,4,.47,8.1,1.18,12-.16,1.27,1.27,2.7,0,3.73a10.76,10.76,0,0,0-8.91-1.82c-.94.47-2.68-.16-3.15,1,3.39,1.82,7.73,1.59,11.51,1.43.47-.16.79-.24,1.18.08.32,2.06-.39,4.84.87,6.67,1.42,1.91,3.79,2.38,6.07,2.62,7.26-.24,13.72-2.38,20.35-4,1-.08,1.81-.64,2.91-.64a57.33,57.33,0,0,1,11.2-1.5,19.61,19.61,0,0,0-3.31,7.14c-1,2.15,1.65,2.46,2.44,3.66-2.44.71-4.18,2.38-6.46,3.33-5-.16-9.31,1.75-14,2.3-.08,1,1.66.72,1.81,1.75-.23.72-.94.8-1.49,1.19-.08.48,0,.56.47.64.47-.56,1.5-.16,2-.72,1.58,0,2.92-.48,4.42-.55,1.34-.56,2.83-.64,4-1.59,1.65-.48,2.68-1.59,4.34-2.07,2.36,0,4.49-.79,6.7-1v.48c-1.82,2.94-3.71,5.95-5.6,8.73a.89.89,0,0,0,.55,1.27,4.08,4.08,0,0,0,3.07-.47c1.66-2.86,3.16-5.56,4.5-8.5.55-2.7,2.52-4.13,4.5-6,.31-.15.78-.63,1.1-.15a35.8,35.8,0,0,0-3.78,5.55c-.64,2.23-.8,5.08,1.18,6.91.94.8,2.36.56,3.63.64,3.07-1.59,7,1,9.38-2.07,1.42-.24,1.65,1.43,2.44,2.23,1.34.39,2.76,1.75,4.1.79-.08-.87-1-1.67-1.5-2.46-.94-1.67-2.12-3-3-4.53-.4-1.11-1.11-1.82-1.27-2.94,1.43.48,2.69,1.43,4.26,1.67,1.34.56,3,.48,4.26,1.27a14.53,14.53,0,0,0,3.94,3c2,.95,4.18,1.11,6.23,1.91.79.08,2,.71,2.52,0a3.18,3.18,0,0,0-1.18-.88c-.23-1,1.42-.48,2-1.27a1.12,1.12,0,0,0-.92-.6c-1.13-.6-3.94-.82-4.68-1.22a18,18,0,0,1-2.76-.88c-4.73,0-7.34-4.29-11.12-5.87.87-.8,2.21-1.43,2.76-2.63a4.42,4.42,0,0,0,.24-4.21c-.72-2.46-3.87-2.14-5.68-3.49l.24-.24a32.69,32.69,0,0,1,8.51,1.12c7.57,1,14.59,3.89,22.47,4,4.34,0,9.78.24,11.91-4,.39-2.46.87-4.92,1.26-7.38.95-4,3.55-7.63,3.15-12m-85.16,36.22-1.1-1c.55-.72,1.74-.32,2.6-.8,2.06-.63,4.42-1.42,6.71-1-2.37,1.91-5.44,2.14-8.21,2.78m49.23-1.27a35.09,35.09,0,0,0,8.41,2c-.24,1.07-2.17.06-1.94,1.58-2.45-.95-5.28-1.43-7.1-3.34.16-.08.32-.31.63-.24m-74-33.75a5.71,5.71,0,0,1,1.89-4,6.63,6.63,0,0,1,6.23.23,3,3,0,0,1,1.26,1.51,3.55,3.55,0,0,1-1.18,3.58h-.79a8.8,8.8,0,0,1,.47-3.58c-.08-.95-.87-1-1.5-1.42a4.54,4.54,0,0,0-3.54.79,3.59,3.59,0,0,0-1,3.49c.55.88.08,2.07.39,3l-.23.32c-1-1-2.21-2.15-2-4m3.71,2.27c1.18.87,2.83.47,4.25.71a3,3,0,0,1-.39,2.7c-1.34-.32-3.08-.16-3.79-1.43.16-.56-.24-1.35-.07-2M99.3,168c.24-.63,0-1.59.86-1.75.56-.15,1.42-.15,1.5.48a15.65,15.65,0,0,1-.39,2.78,1.82,1.82,0,0,1-2-1.51m37,25.49a8.57,8.57,0,0,1,2.52-7.14,4.51,4.51,0,0,1,3.39.16c-2.05.55-4.65,1-5.13,3.65.09,1-.23,1.59.24,2.46.87,1.51,2.84.87,3.94,2.07a1,1,0,0,1-.7.95c-1.35-.8-3-1.11-4.26-2.15M133.44,199c1.89-.79,3.86-2.46,6-1.74a10.86,10.86,0,0,1-6,1.74m7.49.8a60.14,60.14,0,0,1-3.87,7.46c-.15.4-.78.48-1.25.56,0-1.11,1.1-2,1.57-2.94,1.66-2.14,2.13-4.45,4-6.51.47.47-.47.79-.47,1.43m2-4.61v.32h-.16v-.4h.32a.48.48,0,0,0-.32.08Zm-.71-2.14a18.68,18.68,0,0,1-3.78-1c-.79-.79,0-1.66,0-2.54,1.1-1.74,4.25-2.62,5.75-1a8.33,8.33,0,0,1-2,4.53m1.74,0a13,13,0,0,1,1.26-3.34,6.73,6.73,0,0,1-1.26,3.34m.87-6.44c-1-.23-1.59-1.42-2.69-1.42a6.28,6.28,0,0,1,3-.09c.39.56-.24,1-.31,1.51m.94,2.39h-.08v-.87h.08Zm.08,3.65c-.08-.32.16-.72.24-1.11.39-.4.78.31.94.55a1.16,1.16,0,0,1-1.18.56m1.18-4.93a8.9,8.9,0,0,1,1.19-2.93,4.71,4.71,0,0,1,2.12.31c.16,1.59,2.13,3.74,0,5.09-.71.31-1.73,1-2.52.31a2.22,2.22,0,0,1-.79-2.78m5.76-2.22c-.16-.71.71-.16,1-.47l2.45.16c-1.27-.16-2.84,2.77-3.47.31m3.94,1c-.95.31-1.66,1.42-2.6,1.66a3.17,3.17,0,0,1,2.6-1.66m-3.31,5.16h-.08v-.24h.08Zm.16,4.6c-.08.16.08.4-.16.56l-1.82-1.43a1.94,1.94,0,0,1,2,.87m-2.13-2.46a.59.59,0,0,1,.71,0Zm-1.11-1.19c.32-.48.71-1.19,1.26-1.19,0,.08.08.16.16.24a4.08,4.08,0,0,1-1.42,1m-1.81-.16h-.31l.47-.48c.23.16-.08.32-.16.48m.24,3c1-1.11,2,.63,2.36,1.51,1.19,1.74,4.26,3.33,3.08,5.72-1.5,1.35-3.87.07-5.52,1.11-.87-.08-2.37.15-2.84-.72a46.45,46.45,0,0,1,2.92-7.62M146.53,197l.39-.64a34,34,0,0,1-2.6,5.72c-.47-1.9,1.5-3.41,2.21-5.08m3.47,9.45c-1.5.08-3.79.95-5.2-.32.07-.64-.64-1-.56-1.59,1.26-.47,2.37,1,3.55-.08,1.81.08,3.71-.24,5.52.16.87.24,2.21-1.43,2.36.24-.63,2.62-3.78.79-5.67,1.59m4.57-11.68h.16V195h-.16ZM155,200c.08.8.87,1.12.4,1.83A2.46,2.46,0,0,1,155,200m2.21,4.77-.39.16c-.4-.32-.24-1.19-.16-1.67.47.4.87,1,.55,1.51m3.95,1.91c-.08.23-.48.23-.64.08-2.36-3-3.47-6.2-5-9.53l.31-.08c1.89,3.09,3.39,6.51,5.29,9.53m2.91-7.31a.32.32,0,0,0-.16.32c-2.28.08-3.78-1.27-5.51-2.46l-.09-.4c2.14.16,3.87,1.51,5.76,2.54m-2.05-10.56c.95.24,1,1.27,1.1,2.06a4.68,4.68,0,0,1-5.75,4.21c1.89-.08,3.94-.79,4.73-2.7Zm-1.73-.32c.39,1.11,1.1,2.15.71,3.49-.79,1.51-2.37,1.51-3.79,1.83a2.46,2.46,0,0,1-1.81-.56.81.81,0,0,0-.32-.79c.24-1-1.81-2.06-.39-2.94,1.26-1.19,4.26-3.89,5.6-1m40-5.8c-.63.8-.08,2.07-.86,2.78,0,1.43-1.19,2.15-2.21,2.7-9.39,2.07-18.61-1.11-27.68-2.7-12.69-2.78-27.52-3.57-40.45-.63-6.07,1.11-12,2.54-17.82,4.21-3.62.47-7.57,1-11-.08-2.83-1.35-1.65-5-2.52-7.55.15-2-.55-3.57-.63-5.48a4.64,4.64,0,0,1-.32-2.06c1.18.16,2.37,1,3.63,1.35,6.63,1.27,12.54-.88,18.69-2a136.55,136.55,0,0,1,18.21-2.78c7.1-.07,14.35-.47,21.13.72,2.21.08,4.1.63,6.23.79,4.42.56,8.52,1.75,13,2.07a23.44,23.44,0,0,0,2.37.39c7.09,1.12,15.06,3.1,21.84,0,0,2.86-1.18,5.48-1.58,8.26m-2.2-9.69c.07,1.27-1.11,1-1.74,1.43h-1.89a4.24,4.24,0,0,1-.24-2.22,16.43,16.43,0,0,1,3.87.79m-.87-2c.87-.88-.24-5.88,2.21-2.62,0,.63.07,1.59-.56,2.06-.39.32-1,.95-1.65.56m6.38-.8a4.49,4.49,0,0,1-3.39,2.7c.08-1.9,1.82-3.25,1.19-5.4a4.77,4.77,0,0,0-5-1.59c-.71.48-.39,1.27-.63,2l-.32,2.62c-1.58,0-1.65-1.43-2.13-2.54a4.59,4.59,0,0,1,2.45-4.13,5.38,5.38,0,0,1,4.57.16,3.55,3.55,0,0,1,2.6,1.67c1.19,1.11.87,3.1.63,4.52" style="fill:#fff"/></svg>