<svg width="898" height="544" viewBox="0 0 898 544" fill="none" xmlns="http://www.w3.org/2000/svg">
<path fill-rule="evenodd" clip-rule="evenodd" d="M897.643 365.481C909.567 461.792 620.396 524.612 371.499 480.771C122.603 436.931 8.42112 265.728 127.19 174.504C245.96 83.2801 885.719 269.17 897.643 365.481Z" fill="#F2F2F2"/>
<line x1="527.669" y1="106.718" x2="418.669" y2="85.7184" stroke="#BA8B72" stroke-width="3.5"/>
<line x1="71.4601" y1="24.0353" x2="193.486" y2="208.724" stroke="#BA8B72" stroke-width="3.5"/>
<line x1="359.308" y1="85.1626" x2="247.308" y2="211.163" stroke="#BA8B72" stroke-width="3.5"/>
<path fill-rule="evenodd" clip-rule="evenodd" d="M595.935 155.244C602.411 159.147 608.774 161.033 611.76 160.263C619.25 158.333 619.938 130.935 614.143 120.134C608.349 109.333 578.558 104.625 577.057 126.025C576.536 133.453 579.654 140.081 584.262 145.49L576 184H600L595.935 155.244Z" fill="#D4A181"/>
<path fill-rule="evenodd" clip-rule="evenodd" d="M604.663 108.37C601.384 107.37 596.623 107.031 594.621 107.26C595.76 104.531 596.212 101.49 595.844 98.5291C595.485 95.6521 594.2 93.2024 593.011 90.6354C592.463 89.4522 591.842 88.2754 590.916 87.3704C589.972 86.4483 588.778 85.8397 587.526 85.5494C586.245 85.2522 584.905 85.2769 583.622 85.5466C583.054 85.6659 582.545 85.9255 581.988 86.0698C581.418 86.2176 581.141 85.8608 580.727 85.5021C579.73 84.638 578.268 84.2114 577.006 84.0587C575.59 83.8875 574.121 84.101 572.771 84.5664C571.457 85.0194 570.195 85.7551 569.245 86.8268C568.822 87.3039 568.438 87.8469 568.188 88.4464C568.086 88.6924 568.069 88.8381 567.823 88.9283C567.596 89.0117 567.331 89.0141 567.096 89.0935C564.831 89.8609 562.893 91.6117 561.838 93.8595C561.223 95.1709 560.931 97.4798 561.011 100.068C561.091 102.656 563.428 109.408 565.613 111.871C567.564 114.07 570.432 115.52 573.199 116.155C571.362 118.255 570.14 120.878 569.235 123.547C568.253 126.445 567.645 129.457 567.421 132.525C567.208 135.44 567.188 138.524 567.871 141.377C568.511 144.045 569.878 146.234 572.161 147.622C573.206 148.258 574.331 148.736 575.463 149.173C576.578 149.603 577.696 150.022 578.864 150.263C581.075 150.72 583.622 150.642 585.325 148.882C585.939 148.248 586.614 147.451 587.061 146.676C587.222 146.397 587.32 146.215 587.124 145.943C586.89 145.616 586.511 145.366 586.21 145.111C584.493 143.656 583.43 141.713 583.163 139.405C582.891 137.063 583.52 134.039 585.797 133.017C588.608 131.755 591.704 133.204 594.203 134.554C595.265 130.806 597.445 127.431 600.863 125.712C604.645 123.811 608.985 123.588 612.871 121.956C613.884 121.531 614.915 121.048 615.661 120.182C615.973 119.82 616.338 119.35 616.463 118.871C616.626 118.242 616.22 117.715 615.907 117.224C614.245 114.624 607.943 109.37 604.663 108.37Z" fill="#191847"/>
<rect y="136" width="98" height="408" rx="4" fill="url(#paint0_linear)"/>
<rect x="170" y="327" width="98" height="217" rx="4" fill="url(#paint1_linear)"/>
<rect x="340" y="193" width="98" height="351" rx="4" fill="url(#paint2_linear)"/>
<rect x="735" y="202" width="98" height="342" rx="4" fill="url(#paint3_linear)"/>
<circle cx="49" cy="32" r="32" fill="url(#paint4_radial)"/>
<circle cx="219" cy="225" r="32" fill="url(#paint5_radial)"/>
<circle cx="389" cy="94" r="32" fill="url(#paint6_radial)"/>
<circle cx="708" cy="176" r="32" fill="url(#paint7_radial)"/>
<path fill-rule="evenodd" clip-rule="evenodd" d="M655.348 192.69L620.638 211.7L633.456 225.458L658.677 202.365C671.963 198.704 678.039 196.025 676.905 194.329C675.948 192.9 674.406 192.949 672.985 192.995C671.878 193.031 670.845 193.064 670.22 192.394C668.794 190.863 671.515 185.51 674.315 180.542C677.114 175.573 674.121 176.005 672.409 176.72C666.807 180.512 661.12 185.836 655.348 192.69ZM690.247 219.364L675 227.74L675.868 243.04C675.868 243.04 685.743 235.913 694.238 233.544C705.071 230.524 709.453 228.218 714.746 221.473C717.578 217.865 719.982 210.61 717.286 208.248C716.252 207.341 712.399 209.482 708.468 211.667C705.472 213.332 702.43 215.022 700.556 215.408C698.034 215.927 698.329 212.657 698.565 210.045C698.734 208.17 698.873 206.633 697.918 207.077C693.455 207.154 690.247 219.364 690.247 219.364Z" fill="#D4A181"/>
<path fill-rule="evenodd" clip-rule="evenodd" d="M603.734 207.465C615.892 207.337 632.104 204.769 649.402 193.789L656.196 208.939C644.264 220.78 627.486 230.51 612.816 230.098C601.255 229.773 595.347 215.789 603.734 207.465Z" fill="#F2C94C"/>
<path fill-rule="evenodd" clip-rule="evenodd" d="M570.945 311.259C559.387 309.752 548.766 308.367 542.473 309.606C535.411 286.673 541.275 272.234 546.688 258.905C549.95 250.871 553.049 243.241 553.056 234.397C553.075 208.642 573.754 169 576.797 169H577.67H601.783H604.544C605.784 184.937 611.079 202.193 616.407 219.56C617.652 223.615 618.898 227.677 620.095 231.729C640.26 236.307 685.036 220.373 685.036 220.373C685.036 220.373 696.34 243.759 695.487 253.717C669.424 267.331 647.087 273.401 628.683 273.802C629.268 284.721 627.939 295.112 623.474 304.606C617.491 317.327 592.576 314.079 570.945 311.259Z" fill="#F2C94C"/>
<path fill-rule="evenodd" clip-rule="evenodd" d="M559 305L595.255 432.227L621.707 526H641L612.891 305H559Z" fill="#191847"/>
<path fill-rule="evenodd" clip-rule="evenodd" d="M549.304 305C548.466 370.574 545.606 406.34 544.726 412.298C543.845 418.256 530.532 456.156 504.786 526H524.773C557.549 458.997 575.846 421.096 579.662 412.298C583.479 403.5 595.259 367.734 613 305H549.304Z" fill="#2F3676"/>
<path fill-rule="evenodd" clip-rule="evenodd" d="M503 544L504 523L525 523C539.936 533.5 564 540 564 540V544H526L513 542V544H503Z" fill="#191847"/>
<path fill-rule="evenodd" clip-rule="evenodd" d="M619 544L620 523L641 523C655.936 533.5 680 540 680 540V544H642L629 542V544H619Z" fill="#191847"/>
<defs>
<linearGradient id="paint0_linear" x1="49" y1="136" x2="49" y2="544" gradientUnits="userSpaceOnUse">
<stop stop-color="#00698F"/>
<stop offset="1" stop-color="#07769E"/>
</linearGradient>
<linearGradient id="paint1_linear" x1="219" y1="327" x2="219" y2="544" gradientUnits="userSpaceOnUse">
<stop stop-color="#00698F"/>
<stop offset="1" stop-color="#07769E"/>
</linearGradient>
<linearGradient id="paint2_linear" x1="389" y1="193" x2="389" y2="544" gradientUnits="userSpaceOnUse">
<stop stop-color="#00698F"/>
<stop offset="1" stop-color="#07769E"/>
</linearGradient>
<linearGradient id="paint3_linear" x1="784" y1="202" x2="784" y2="544" gradientUnits="userSpaceOnUse">
<stop stop-color="#00698F"/>
<stop offset="1" stop-color="#07769E"/>
</linearGradient>
<radialGradient id="paint4_radial" cx="0" cy="0" r="1" gradientUnits="userSpaceOnUse" gradientTransform="translate(49 32) rotate(90) scale(32)">
<stop stop-color="#E7BC88" stop-opacity="0.9"/>
<stop offset="0.489583" stop-color="#E7BC88"/>
<stop offset="1" stop-color="#E7BC88"/>
</radialGradient>
<radialGradient id="paint5_radial" cx="0" cy="0" r="1" gradientUnits="userSpaceOnUse" gradientTransform="translate(219 225) rotate(90) scale(32)">
<stop stop-color="#E7BC88" stop-opacity="0.9"/>
<stop offset="0.489583" stop-color="#E7BC88"/>
<stop offset="1" stop-color="#E7BC88"/>
</radialGradient>
<radialGradient id="paint6_radial" cx="0" cy="0" r="1" gradientUnits="userSpaceOnUse" gradientTransform="translate(389 94) rotate(90) scale(32)">
<stop stop-color="#E7BC88" stop-opacity="0.9"/>
<stop offset="0.489583" stop-color="#E7BC88"/>
<stop offset="1" stop-color="#E7BC88"/>
</radialGradient>
<radialGradient id="paint7_radial" cx="0" cy="0" r="1" gradientUnits="userSpaceOnUse" gradientTransform="translate(708 176) rotate(90) scale(32)">
<stop stop-color="#E7BC88" stop-opacity="0.9"/>
<stop offset="0.489583" stop-color="#E7BC88"/>
<stop offset="1" stop-color="#E7BC88"/>
</radialGradient>
</defs>
</svg>
